<svg version="1.1" id="Layer_1" xmlns="http://www.w3.org/2000/svg" xmlns:xlink="http://www.w3.org/1999/xlink" x="0px" y="0px"
	 width="100%" viewBox="0 0 212 150" enable-background="new 0 0 212 150" xml:space="preserve">
<path fill="#010101" opacity="1.000000" stroke="none" 
	d="
M196.004730,151.000000 
	C130.670471,151.000000 65.837326,151.000000 1.003144,151.000000 
	C1.002096,101.001549 1.002096,51.003098 1.001048,1.003486 
	C71.664902,1.002324 142.329803,1.002324 212.996033,1.001162 
	C212.997345,50.998081 212.997345,100.996162 212.998672,150.997131 
	C207.501953,151.000000 202.003891,151.000000 196.004730,151.000000 
M100.971321,87.453110 
	C101.199577,86.448334 101.427834,85.443558 101.471016,85.253464 
	C98.990616,85.852852 96.479378,86.459702 93.081154,87.280884 
	C93.102806,87.205933 92.738838,88.465904 92.106194,90.655952 
	C95.448357,89.877159 98.020271,89.277855 101.503006,88.937828 
	C105.297523,91.099014 107.839012,90.256020 109.692856,85.876091 
	C110.893913,86.273262 112.094978,86.670433 113.082649,87.826515 
	C113.988869,88.526451 115.546379,89.949257 115.698509,89.812195 
	C116.938309,88.695183 117.915451,87.286629 119.755180,85.927338 
	C120.934212,86.306183 122.113243,86.685036 123.078941,87.824608 
	C124.265663,91.219254 126.226700,90.470779 128.114151,88.606598 
	C129.214722,87.519585 129.966599,86.079521 131.538345,84.976570 
	C132.546371,85.413826 133.554382,85.851074 134.147034,86.108147 
	C135.257629,84.334969 136.242508,82.762497 137.227402,81.190018 
	C138.172974,81.787651 139.118546,82.385292 139.542496,83.362389 
	C139.763519,84.249046 139.709534,85.440575 140.272385,85.948280 
	C141.045731,86.645866 142.286209,86.825600 143.195602,87.971977 
	C144.178665,88.628510 145.708847,90.048317 146.047363,89.805664 
	C147.319534,88.893768 148.203094,87.439774 150.008255,86.057701 
	C151.314911,86.069214 152.621567,86.080727 153.846649,86.806923 
	C153.676453,87.726532 153.506256,88.646141 153.337402,89.558502 
	C156.693954,90.524300 159.049362,90.150681 160.083450,86.058609 
	C161.139145,85.815132 162.194839,85.571655 163.393021,86.255936 
	C163.954987,87.480293 164.516953,88.704643 165.078934,89.928993 
	C166.463455,88.682457 167.847977,87.435921 169.975388,86.063721 
	C174.195206,87.099403 174.167587,83.162209 176.213989,80.984367 
	C174.639435,80.285774 173.391647,79.732147 172.113602,79.165115 
	C172.446060,77.230759 172.723480,75.616638 173.882095,73.909859 
	C176.222778,73.332520 179.226135,75.212502 181.678375,71.720497 
	C180.269592,71.720497 179.676865,71.719009 179.084152,71.720711 
	C155.323151,71.788757 131.562149,71.906616 107.801132,71.911079 
	C85.280373,71.915306 62.759594,71.783257 40.238823,71.784004 
	C38.955616,71.784050 37.672428,72.443329 36.389233,72.795792 
	C36.468533,73.198036 36.547836,73.600288 36.627140,74.002541 
	C60.084446,74.002541 83.541756,74.002541 107.081734,74.651131 
	C106.634293,76.584114 106.186844,78.517097 105.691612,80.656540 
	C106.785828,80.874123 107.994003,81.114365 109.326157,81.379257 
	C109.201385,82.796181 109.090889,84.050919 108.169556,85.138206 
	C105.725731,86.132492 103.281898,87.126778 100.971321,87.453110 
M42.575623,87.883575 
	C42.768333,87.908455 42.961044,87.933342 43.272831,88.730850 
	C47.094322,91.284889 50.229153,90.052826 53.329239,87.736969 
	C54.648468,92.500275 58.224178,88.567558 60.677071,90.119080 
	C62.251175,85.207520 63.689045,80.721039 65.126915,76.234558 
	C64.806435,75.780128 64.485962,75.325699 64.165482,74.871269 
	C61.425049,75.925919 58.684620,76.980568 55.452309,77.497772 
	C52.634895,74.587547 49.489941,75.001373 46.181732,78.375793 
	C44.904301,77.475929 43.729439,75.981842 42.551838,75.979675 
	C40.909161,75.976654 38.344242,76.648514 37.791061,77.805046 
	C36.047989,81.449211 35.059456,85.454292 33.209507,91.038368 
	C37.094673,89.714088 39.554031,88.875809 42.575623,87.883575 
M107.500000,91.006065 
	C82.222023,91.006065 56.944042,91.006065 31.666063,91.006065 
	C31.667032,91.251297 31.668003,91.496529 31.668974,91.741760 
	C79.216255,91.741760 126.763535,91.741760 174.310822,91.741760 
	C174.312103,91.496529 174.313385,91.251297 174.314667,91.006065 
	C152.376450,91.006065 130.438217,91.006065 107.500000,91.006065 
z"/>
<path fill="#D9D9D9" opacity="1.000000" stroke="none" 
	d="
M106.999062,74.002541 
	C83.541756,74.002541 60.084446,74.002541 36.627140,74.002541 
	C36.547836,73.600288 36.468533,73.198036 36.389233,72.795792 
	C37.672428,72.443329 38.955616,71.784050 40.238823,71.784004 
	C62.759594,71.783257 85.280373,71.915306 107.801132,71.911079 
	C131.562149,71.906616 155.323151,71.788757 179.084152,71.720711 
	C179.676865,71.719009 180.269592,71.720497 181.678375,71.720497 
	C179.226135,75.212502 176.222778,73.332520 173.022293,73.849930 
	C170.441330,73.860863 168.720169,73.931740 166.600815,73.956207 
	C165.135391,73.940712 164.068176,73.971626 162.593109,73.896263 
	C160.789856,73.860832 159.394440,73.931679 157.584229,73.956116 
	C155.779938,73.940643 154.390427,73.971588 152.581726,73.896271 
	C150.441360,73.860840 148.720184,73.931679 146.600830,73.956116 
	C145.135391,73.940651 144.068161,73.971588 142.581726,73.896263 
	C140.441360,73.860840 138.720184,73.931686 136.584229,73.956116 
	C134.779953,73.940643 133.390442,73.971581 131.593109,73.896255 
	C129.789856,73.860825 128.394455,73.931679 126.584244,73.956116 
	C124.779953,73.940643 123.390457,73.971581 121.593124,73.896255 
	C119.789879,73.860825 118.394455,73.931671 116.584244,73.956116 
	C114.779953,73.940643 113.390457,73.971588 111.593124,73.896255 
	C109.789886,73.860832 108.394470,73.931686 106.999062,74.002541 
z"/>
<path fill="#343434" opacity="1.000000" stroke="none" 
	d="
M146.999023,74.002525 
	C148.720184,73.931679 150.441360,73.860840 152.472534,74.239716 
	C152.406494,76.357933 152.030457,78.026443 151.599442,79.938850 
	C156.310242,80.069191 158.353104,78.240990 157.999023,74.002525 
	C159.394440,73.931679 160.789856,73.860832 162.520370,74.275650 
	C162.659027,76.321899 162.462570,77.882477 162.237564,79.669868 
	C167.259140,80.179977 167.753632,77.588249 166.999008,74.002609 
	C168.720169,73.931740 170.441330,73.860863 172.581696,73.896255 
	C172.723480,75.616638 172.446060,77.230759 172.113602,79.165115 
	C173.391647,79.732147 174.639435,80.285774 176.213989,80.984367 
	C174.167587,83.162209 174.195206,87.099403 169.538162,85.761520 
	C167.179764,82.571022 165.116318,82.524765 163.250534,85.328186 
	C162.194839,85.571655 161.139145,85.815132 159.602417,85.770584 
	C157.427094,84.533600 155.732788,83.584648 152.950974,82.026581 
	C153.561813,84.567863 153.745010,85.330048 153.928223,86.092239 
	C152.621567,86.080727 151.314911,86.069214 149.555298,85.762817 
	C148.622345,81.108719 144.841080,84.662193 142.830505,83.011765 
	C141.642960,82.998436 140.853531,82.990685 140.064117,82.982933 
	C139.118546,82.385292 138.172974,81.787651 137.227402,81.190018 
	C136.242508,82.762497 135.257629,84.334969 134.147034,86.108147 
	C133.554382,85.851074 132.546371,85.413826 131.220352,84.491165 
	C130.932266,82.673759 130.962189,81.341759 131.401337,80.019562 
	C136.380142,80.465416 137.330612,77.785820 136.999023,74.002525 
	C138.720184,73.931686 140.441360,73.860840 142.472565,74.239609 
	C142.404922,76.351257 142.027206,78.013306 141.614532,79.829231 
	C146.818375,80.417145 147.175613,77.434181 146.999023,74.002525 
M133.426636,82.477051 
	C133.426636,82.477051 133.533997,82.418327 133.426636,82.477051 
z"/>
<path fill="#E90B13" opacity="1.000000" stroke="none" 
	d="
M53.026840,86.961830 
	C50.229153,90.052826 47.094322,91.284889 43.536491,88.273308 
	C44.356056,86.155533 44.911964,84.495300 45.467869,82.835068 
	C44.810867,82.650291 44.153870,82.465523 43.496868,82.280746 
	C43.002377,84.199677 42.507881,86.118599 42.013390,88.037521 
	C39.554031,88.875809 37.094673,89.714088 33.209507,91.038368 
	C35.059456,85.454292 36.047989,81.449211 37.791061,77.805046 
	C38.344242,76.648514 40.909161,75.976654 42.551838,75.979675 
	C43.729439,75.981842 44.904301,77.475929 46.181732,78.375793 
	C49.489941,75.001373 52.634895,74.587547 55.716099,77.743797 
	C55.979889,77.989822 56.027294,77.956825 55.636078,78.040314 
	C55.159782,79.098297 55.074707,80.072792 54.992367,81.022049 
	C54.995102,80.996803 55.027214,80.957458 54.632385,81.042397 
	C54.155838,82.099899 54.074123,83.072456 53.993813,84.020798 
	C53.995216,83.996582 54.026569,83.959557 53.623779,84.045517 
	C53.146027,85.101875 53.071060,86.072281 52.996857,87.019821 
	C52.997620,86.996956 53.026840,86.961830 53.026840,86.961830 
M44.488674,80.554787 
	C44.488674,80.554787 44.450920,80.480385 44.488674,80.554787 
z"/>
<path fill="#7B7B7B" opacity="1.000000" stroke="none" 
	d="
M108.000000,91.006065 
	C130.438217,91.006065 152.376450,91.006065 174.314667,91.006065 
	C174.313385,91.251297 174.312103,91.496529 174.310822,91.741760 
	C126.763535,91.741760 79.216255,91.741760 31.668974,91.741760 
	C31.668003,91.496529 31.667032,91.251297 31.666063,91.006065 
	C56.944042,91.006065 82.222023,91.006065 108.000000,91.006065 
z"/>
<path fill="#EB0C13" opacity="1.000000" stroke="none" 
	d="
M55.962036,78.012520 
	C58.684620,76.980568 61.425049,75.925919 64.165482,74.871269 
	C64.485962,75.325699 64.806435,75.780128 65.126915,76.234558 
	C63.689045,80.721039 62.251175,85.207520 60.677071,90.119080 
	C58.224178,88.567558 54.648468,92.500275 53.178040,87.349396 
	C53.026840,86.961830 52.997620,86.996956 53.352169,86.902473 
	C53.813335,85.858513 53.919952,84.909035 54.026566,83.959557 
	C54.026569,83.959557 53.995216,83.996582 54.352890,83.909256 
	C54.816113,82.867111 54.921665,81.912285 55.027214,80.957458 
	C55.027214,80.957458 54.995102,80.996803 55.352280,80.910645 
	C55.815407,79.868599 55.921352,78.912712 56.027294,77.956825 
	C56.027294,77.956825 55.979889,77.989822 55.962036,78.012520 
z"/>
<path fill="#343434" opacity="1.000000" stroke="none" 
	d="
M116.999039,74.002518 
	C118.394455,73.931671 119.789879,73.860825 121.527168,74.234207 
	C121.195038,75.989586 120.521027,77.300743 119.535713,79.217476 
	C121.899925,79.557381 123.878616,79.841858 126.063545,80.155983 
	C126.428879,77.752914 126.713959,75.877724 126.999039,74.002525 
	C128.394455,73.931679 129.789856,73.860825 131.527771,74.221085 
	C131.269089,76.150269 130.667892,77.648346 130.063873,79.538315 
	C129.324097,80.947701 128.696701,82.073021 127.825409,82.958313 
	C126.397758,84.408913 124.811592,85.703506 123.292282,87.063889 
	C122.113243,86.685036 120.934212,86.306183 119.330254,85.588661 
	C117.916862,83.542068 116.928398,81.834145 116.121857,79.890427 
	C116.535522,77.770599 116.767281,75.886566 116.999039,74.002518 
z"/>
<path fill="#343434" opacity="1.000000" stroke="none" 
	d="
M107.040398,74.326836 
	C108.394470,73.931686 109.789886,73.860832 111.527740,74.281700 
	C111.742981,76.357063 111.615776,77.940697 111.470596,79.748169 
	C112.857117,79.915779 113.983803,80.051987 115.105957,80.562393 
	C114.499634,82.980263 113.897842,85.023933 113.296036,87.067604 
	C112.094978,86.670433 110.893913,86.273262 109.295151,85.725159 
	C108.897453,85.574219 108.980400,85.305656 108.980400,85.305656 
	C109.090889,84.050919 109.201385,82.796181 109.326157,81.379257 
	C107.994003,81.114365 106.785828,80.874123 105.691612,80.656540 
	C106.186844,78.517097 106.634293,76.584114 107.040398,74.326836 
z"/>
<path fill="#5B5B5B" opacity="1.000000" stroke="none" 
	d="
M123.185608,87.444252 
	C124.811592,85.703506 126.397758,84.408913 127.825409,82.958313 
	C128.696701,82.073021 129.324097,80.947701 130.284058,79.592209 
	C130.749191,79.454384 130.910873,79.706238 130.992096,80.009766 
	C130.962189,81.341759 130.932266,82.673759 130.888855,84.402031 
	C129.966599,86.079521 129.214722,87.519585 128.114151,88.606598 
	C126.226700,90.470779 124.265663,91.219254 123.185608,87.444252 
z"/>
<path fill="#585858" opacity="1.000000" stroke="none" 
	d="
M163.321777,85.792061 
	C165.116318,82.524765 167.179764,82.571022 169.166718,85.824356 
	C167.847977,87.435921 166.463455,88.682457 165.078934,89.928993 
	C164.516953,88.704643 163.954987,87.480293 163.321777,85.792061 
z"/>
<path fill="#5C5C5C" opacity="1.000000" stroke="none" 
	d="
M113.189346,87.447060 
	C113.897842,85.023933 114.499634,82.980263 115.310715,80.512871 
	C115.519989,80.089149 115.939934,80.126221 115.939934,80.126221 
	C116.928398,81.834145 117.916862,83.542068 118.938919,85.608383 
	C117.915451,87.286629 116.938309,88.695183 115.698509,89.812195 
	C115.546379,89.949257 113.988869,88.526451 113.189346,87.447060 
z"/>
<path fill="#585858" opacity="1.000000" stroke="none" 
	d="
M153.887436,86.449585 
	C153.745010,85.330048 153.561813,84.567863 152.950974,82.026581 
	C155.732788,83.584648 157.427094,84.533600 159.200424,85.845825 
	C159.049362,90.150681 156.693954,90.524300 153.337402,89.558502 
	C153.506256,88.646141 153.676453,87.726532 153.887436,86.449585 
z"/>
<path fill="#585858" opacity="1.000000" stroke="none" 
	d="
M143.228622,83.017349 
	C144.841080,84.662193 148.622345,81.108719 149.167297,85.828400 
	C148.203094,87.439774 147.319534,88.893768 146.047363,89.805664 
	C145.708847,90.048317 144.178665,88.628510 143.436493,87.339127 
	C143.527802,85.476631 143.378204,84.246994 143.228622,83.017349 
z"/>
<path fill="#E3E3E3" opacity="1.000000" stroke="none" 
	d="
M100.592186,88.678551 
	C98.020271,89.277855 95.448357,89.877159 92.106194,90.655952 
	C92.738838,88.465904 93.102806,87.205933 93.081154,87.280884 
	C96.479378,86.459702 98.990616,85.852852 101.471016,85.253464 
	C101.427834,85.443558 101.199577,86.448334 100.783714,87.826225 
	C100.478508,88.358269 100.477203,88.518005 100.592186,88.678551 
z"/>
<path fill="#5E5E5E" opacity="1.000000" stroke="none" 
	d="
M101.047592,88.808189 
	C100.477203,88.518005 100.478508,88.358269 100.717087,88.160202 
	C103.281898,87.126778 105.725731,86.132492 108.574982,85.221931 
	C108.980400,85.305656 108.897453,85.574219 108.896790,85.714203 
	C107.839012,90.256020 105.297523,91.099014 101.047592,88.808189 
z"/>
<path fill="#E70B13" opacity="1.000000" stroke="none" 
	d="
M42.294506,87.960548 
	C42.507881,86.118599 43.002377,84.199677 43.496868,82.280746 
	C44.153870,82.465523 44.810867,82.650291 45.467869,82.835068 
	C44.911964,84.495300 44.356056,86.155533 43.476955,87.886993 
	C42.961044,87.933342 42.768333,87.908455 42.294506,87.960548 
z"/>
<path fill="#181818" opacity="1.000000" stroke="none" 
	d="
M142.830505,83.011765 
	C143.378204,84.246994 143.527802,85.476631 143.501953,86.966751 
	C142.286209,86.825600 141.045731,86.645866 140.272385,85.948280 
	C139.709534,85.440575 139.763519,84.249046 139.803314,83.172661 
	C140.853531,82.990685 141.642960,82.998436 142.830505,83.011765 
z"/>
<path fill="#010101" opacity="1.000000" stroke="none" 
	d="
M131.401337,80.019562 
	C130.910873,79.706238 130.749191,79.454384 130.286865,79.200317 
	C130.667892,77.648346 131.269089,76.150269 131.935608,74.327354 
	C133.390442,73.971581 134.779953,73.940643 136.584229,73.956116 
	C137.330612,77.785820 136.380142,80.465416 131.401337,80.019562 
z"/>
<path fill="#010101" opacity="1.000000" stroke="none" 
	d="
M126.584244,73.956116 
	C126.713959,75.877724 126.428879,77.752914 126.063545,80.155983 
	C123.878616,79.841858 121.899925,79.557381 119.535713,79.217476 
	C120.521027,77.300743 121.195038,75.989586 121.934998,74.340477 
	C123.390457,73.971581 124.779953,73.940643 126.584244,73.956116 
z"/>
<path fill="#010101" opacity="1.000000" stroke="none" 
	d="
M157.584229,73.956116 
	C158.353104,78.240990 156.310242,80.069191 151.599442,79.938850 
	C152.030457,78.026443 152.406494,76.357933 152.891739,74.345978 
	C154.390427,73.971588 155.779938,73.940643 157.584229,73.956116 
z"/>
<path fill="#010101" opacity="1.000000" stroke="none" 
	d="
M116.121857,79.890427 
	C115.939934,80.126221 115.519989,80.089149 115.315239,80.138672 
	C113.983803,80.051987 112.857117,79.915779 111.470596,79.748169 
	C111.615776,77.940697 111.742981,76.357063 111.935570,74.387970 
	C113.390457,73.971588 114.779953,73.940643 116.584244,73.956116 
	C116.767281,75.886566 116.535522,77.770599 116.121857,79.890427 
z"/>
<path fill="#010101" opacity="1.000000" stroke="none" 
	d="
M146.600830,73.956116 
	C147.175613,77.434181 146.818375,80.417145 141.614532,79.829231 
	C142.027206,78.013306 142.404922,76.351257 142.891785,74.345871 
	C144.068161,73.971588 145.135391,73.940651 146.600830,73.956116 
z"/>
<path fill="#010101" opacity="1.000000" stroke="none" 
	d="
M166.600815,73.956207 
	C167.753632,77.588249 167.259140,80.179977 162.237564,79.669868 
	C162.462570,77.882477 162.659027,76.321899 162.928207,74.381927 
	C164.068176,73.971626 165.135391,73.940712 166.600815,73.956207 
z"/>
<path fill="#181818" opacity="1.000000" stroke="none" 
	d="
M133.480316,82.447693 
	C133.533997,82.418327 133.426636,82.477051 133.480316,82.447693 
z"/>
<path fill="#010101" opacity="1.000000" stroke="none" 
	d="
M53.623779,84.045517 
	C53.919952,84.909035 53.813335,85.858513 53.351402,86.925339 
	C53.071060,86.072281 53.146027,85.101875 53.623779,84.045517 
z"/>
<path fill="#010101" opacity="1.000000" stroke="none" 
	d="
M54.632385,81.042397 
	C54.921665,81.912285 54.816113,82.867111 54.351486,83.933479 
	C54.074123,83.072456 54.155838,82.099899 54.632385,81.042397 
z"/>
<path fill="#010101" opacity="1.000000" stroke="none" 
	d="
M55.636078,78.040314 
	C55.921352,78.912712 55.815407,79.868599 55.349548,80.935883 
	C55.074707,80.072792 55.159782,79.098297 55.636078,78.040314 
z"/>
<path fill="#E70B13" opacity="1.000000" stroke="none" 
	d="
M44.469795,80.517586 
	C44.450920,80.480385 44.488674,80.554787 44.469795,80.517586 
z"/>
</svg>