<?xml version="1.0" encoding="UTF-8" standalone="no"?><!DOCTYPE svg PUBLIC "-//W3C//DTD SVG 1.1//EN" "http://www.w3.org/Graphics/SVG/1.1/DTD/svg11.dtd"><svg width="100%" height="100%" viewBox="0 0 2835 1182" version="1.1" xmlns="http://www.w3.org/2000/svg" xmlns:xlink="http://www.w3.org/1999/xlink" xml:space="preserve" xmlns:serif="http://www.serif.com/" style="fill-rule:evenodd;clip-rule:evenodd;stroke-linejoin:round;stroke-miterlimit:2;"><g><path d="M2730.808,624.854l-96.261,316.306l-2564.763,0l99.399,-316.306l2561.624,0Z"/><path d="M340.501,659.864l-81.029,250.65l-139.998,0l83.705,-250.65l137.322,0Z" style="fill:#f60c14;"/><path d="M512.15,659.864l-81.029,250.65l-139.998,0l83.705,-250.65l137.322,0Z" style="fill:#f60c14;"/><path d="M683.872,659.864l-81.029,250.65l-139.998,0l83.705,-250.65l137.322,0Z" style="fill:#f60c14;"/><path d="M856.714,659.864l-81.029,250.65l-139.998,0l83.705,-250.65l137.322,0Z" style="fill:#fff;"/><path d="M1029.564,659.864l-81.029,250.65l-139.998,0l83.705,-250.65l137.322,0Z" style="fill:#fff;"/><path d="M1202.379,659.864l-81.029,250.65l-139.998,0l83.705,-250.65l137.322,0Z" style="fill:#fff;"/><path d="M1382.707,659.864l-81.029,250.65l-139.998,0l83.705,-250.65l137.322,0Z" style="fill:#fff;"/><g><path d="M1575.215,747.398l-27.457,83.285l-90.527,-0.122l25.554,-83.549l92.431,0.386Z" style="fill:#6d6d6d;"/><path d="M1754.06,747.398l-27.457,83.285l-90.527,-0.122l25.554,-83.549l92.431,0.386Z" style="fill:#6d6d6d;"/><path d="M1936.118,747.398l-27.457,83.285l-90.527,-0.122l25.554,-83.549l92.431,0.386Z" style="fill:#6d6d6d;"/><path d="M2116.251,747.398l-27.457,83.285l-90.527,-0.122l25.554,-83.549l92.431,0.386Z" style="fill:#6d6d6d;"/><path d="M2294.375,747.398l-27.457,83.285l-90.527,-0.122l25.554,-83.549l92.431,0.386Z" style="fill:#6d6d6d;"/><path d="M2472.499,747.398l-27.457,83.285l-90.527,-0.122l25.554,-83.549l92.431,0.386Z" style="fill:#6d6d6d;"/><path d="M2649.042,747.398l-27.457,83.285l-90.527,-0.122l25.554,-83.549l92.431,0.386Z" style="fill:#6d6d6d;"/><path d="M2534.202,830.409l-24.36,80.104l-93.535,0l26.794,-80.232l91.101,0.128Zm-63.395,-83.092l29.205,-87.454l86.053,0l-26.398,86.807l-88.86,0.646Z" style="fill:#6d6d6d;"/><path d="M2357.973,830.409l-24.36,80.104l-93.535,0l26.794,-80.232l91.101,0.128Zm-63.395,-83.092l29.205,-87.454l86.053,0l-26.398,86.807l-88.86,0.646Z" style="fill:#6d6d6d;"/><path d="M2177.819,830.409l-24.36,80.104l-93.535,0l26.794,-80.232l91.101,0.128Zm-63.395,-83.092l29.205,-87.454l86.053,0l-26.398,86.807l-88.86,0.646Z" style="fill:#6d6d6d;"/><path d="M1998.638,830.409l-24.36,80.104l-93.535,0l26.794,-80.232l91.101,0.128Zm-63.395,-83.092l29.205,-87.454l86.053,0l-26.398,86.807l-88.86,0.646Z" style="fill:#6d6d6d;"/><path d="M1818.15,830.409l-24.36,80.104l-93.535,0l26.794,-80.232l91.101,0.128Zm-63.395,-83.092l29.205,-87.454l86.053,0l-26.398,86.807l-88.86,0.646Z" style="fill:#6d6d6d;"/><path d="M1638.969,830.409l-24.36,80.104l-93.535,0l26.794,-80.232l91.101,0.128Zm-63.395,-83.092l29.205,-87.454l86.053,0l-26.398,86.807l-88.86,0.646Z" style="fill:#6d6d6d;"/><path d="M1457.173,830.409l-24.36,80.104l-93.535,0l26.794,-80.232l91.101,0.128Zm-63.395,-83.092l29.205,-87.454l86.053,0l-26.398,86.807l-88.86,0.646Z" style="fill:#6d6d6d;"/></g></g><path d="M1768.196,518.943l16.891,-127.888l150.57,-140.436l130.784,0l-173.252,157.327l-77.216,66.598l-47.777,44.399Zm-116.306,69.494l67.564,-337.818l111.962,0l-67.564,337.818l-111.962,0Zm228.268,0l-81.559,-131.266l84.454,-76.25l124.027,207.517l-126.923,0Z" style="fill-rule:nonzero;"/><path d="M1482.982,588.437l67.564,-337.818l113.893,0l-67.564,337.818l-113.893,0Z" style="fill-rule:nonzero;"/><path d="M2165.017,385.171l178.935,0l-14.239,71.559l-178.935,0l14.239,-71.559Zm-6.716,129.204l187.545,0l-18.303,74.062l-280.871,0l67.564,-337.818l274.598,0l-14.451,71.451l-180.788,0l-35.293,192.305Z" style="fill-rule:nonzero;"/><path d="M236.006,325.141l16.48,-75.405c0,0 190.117,1.036 254.452,0.893c5.53,-0.012 62.766,-5.451 69.608,44.115c1.43,10.357 -4.017,34.257 -4.797,38.274c-3.492,17.992 -9.549,39.012 -14.101,53.169c-3.511,10.92 -8.148,24.274 -13.535,34.03c-3.91,7.082 -12.446,17.727 -20.989,24.788c-8.418,6.957 -19.736,15.221 -31.239,17.255c-13.036,2.304 -29.7,2.284 -29.7,2.284l59.788,123.263l-112.764,0.629l-52.239,-120.747l-45.563,0l-26.437,120.118l-106.368,0l51.242,-234.469l95.126,0l-6.212,35.139c0,0 109.462,3.26 135.128,0.744c7.323,-0.718 9.443,-3.405 16.104,-15.098c4.09,-7.178 8.608,-21.061 9.562,-28.954c0.396,-3.271 1.137,-7.92 -0.142,-10.957c-1.342,-3.187 -4.126,-7.955 -7.91,-8.167c-9.471,-0.53 -33.058,-0.789 -58.321,-0.906c-39.557,-0.184 -83.22,-0.023 -83.22,-0.023l-0.004,0.023l-93.949,0Z"/><path d="M2444.002,325.141l16.48,-75.405c0,0 190.117,1.036 254.452,0.893c5.53,-0.012 62.766,-5.451 69.608,44.115c1.43,10.357 -4.017,34.257 -4.797,38.274c-3.492,17.992 -9.549,39.012 -14.101,53.169c-3.511,10.92 -8.148,24.274 -13.535,34.03c-3.91,7.082 -12.446,17.727 -20.989,24.788c-8.418,6.957 -19.736,15.221 -31.239,17.255c-13.036,2.304 -29.7,2.284 -29.7,2.284l59.788,123.263l-112.764,0.629l-52.239,-120.747l-45.563,0l-26.437,120.118l-106.368,0l51.242,-234.469l95.126,0l-6.212,35.139c0,0 109.462,3.26 135.128,0.744c7.323,-0.718 9.443,-3.405 16.104,-15.098c4.09,-7.178 8.608,-21.061 9.562,-28.954c0.396,-3.271 1.137,-7.92 -0.142,-10.957c-1.342,-3.187 -4.126,-7.955 -7.91,-8.167c-24.301,-1.361 -141.541,-0.929 -141.541,-0.929l-0.004,0.023l-93.949,0Z"/><path d="M654.561,325.141l16.48,-75.405c0,0 190.117,1.036 254.452,0.893c5.53,-0.012 62.766,-5.451 69.608,44.115c1.43,10.357 -4.017,34.257 -4.797,38.274c-3.492,17.992 -9.549,39.012 -14.101,53.169c-3.511,10.92 -8.148,24.274 -13.535,34.03c-3.91,7.082 -12.446,17.727 -20.989,24.788c-8.418,6.957 -19.736,15.221 -31.239,17.255c-13.036,2.304 -29.7,2.284 -29.7,2.284l59.788,123.263l-112.764,0.629l-52.239,-120.747l-45.563,0l-26.437,120.118l-106.368,0l51.242,-234.469l95.126,0l-6.212,35.139c0,0 109.462,3.26 135.128,0.744c7.323,-0.718 9.443,-3.405 16.104,-15.098c4.09,-7.178 8.608,-21.061 9.562,-28.954c0.396,-3.271 1.137,-7.92 -0.142,-10.957c-1.342,-3.187 -4.126,-7.955 -7.91,-8.167c-24.301,-1.361 -141.541,-0.929 -141.541,-0.929l-0.004,0.023l-93.949,0Z"/><path d="M1377.667,588.437l-292.707,-0l79.615,-337.818c0,0 197.825,0.027 270.507,0c15.115,-0.006 63.794,6.87 48.994,80.818c-17.025,85.062 -82.677,86.475 -82.677,86.475c0,0 71.353,3.998 50.525,86.741c-19.378,76.984 -47.478,83.784 -74.256,83.784Zm-133.222,-261.532l-10.818,51.806c0,0 87.36,-0.212 113.887,0c10.919,0.087 20.961,-10.396 22.436,-18.538c0.57,-3.145 1.66,-10.891 0,-15.889c-1.124,-3.384 -5.119,-17.21 -20.619,-17.379c-26.809,-0.293 -104.886,-0 -104.886,-0Zm-28.87,130.693l-10.818,51.806c0,0 87.36,-0.212 113.887,0c10.919,0.087 20.961,-10.396 22.436,-18.538c0.57,-3.145 1.66,-10.891 0,-15.889c-1.124,-3.384 -5.119,-17.21 -20.619,-17.379c-26.809,-0.293 -104.886,-0 -104.886,-0Z"/></svg>