<?xml version="1.0" encoding="UTF-8" standalone="no"?><!DOCTYPE svg PUBLIC "-//W3C//DTD SVG 1.1//EN" "http://www.w3.org/Graphics/SVG/1.1/DTD/svg11.dtd"><svg width="100%" height="100%" viewBox="0 0 3508 2481" version="1.1" xmlns="http://www.w3.org/2000/svg" xmlns:xlink="http://www.w3.org/1999/xlink" xml:space="preserve" xmlns:serif="http://www.serif.com/" style="fill-rule:evenodd;clip-rule:evenodd;stroke-linejoin:round;stroke-miterlimit:2;"><rect x="0" y="0" width="3507.874" height="2480.315" style="fill:#fff;"/><path d="M1710.614,1169.258l-272.654,-0l74.161,-314.674c0,0 184.272,0.025 251.974,0c14.079,-0.005 59.424,6.399 45.637,75.281c-15.858,79.235 -77.013,80.55 -77.013,80.55c0,0 66.465,3.724 47.064,80.798c-18.051,71.71 -44.225,78.044 -69.169,78.044Zm-124.095,-243.614l-10.077,48.257c0,0 81.375,-0.197 106.084,0c10.171,0.081 19.525,-9.684 20.899,-17.268c0.531,-2.93 1.546,-10.145 0,-14.801c-1.047,-3.152 -4.768,-16.031 -19.206,-16.188c-24.973,-0.273 -97.7,-0 -97.7,-0Zm-26.893,121.739l-10.077,48.257c0,0 81.375,-0.197 106.084,0c10.171,0.081 19.525,-9.684 20.899,-17.268c0.531,-2.93 1.546,-10.145 0,-14.801c-1.047,-3.152 -4.768,-16.031 -19.206,-16.188c-24.973,-0.273 -97.7,0 -97.7,0Z"/><path d="M1037.05,924l15.351,-70.239c0,0 177.092,0.965 237.019,0.832c5.151,-0.011 58.466,-5.078 64.839,41.093c1.332,9.648 -3.742,31.91 -4.468,35.652c-3.253,16.759 -8.895,36.339 -13.135,49.527c-3.271,10.172 -7.59,22.611 -12.607,31.699c-3.642,6.596 -11.593,16.513 -19.551,23.09c-7.842,6.481 -18.384,14.179 -29.099,16.073c-12.143,2.147 -27.665,2.128 -27.665,2.128l55.692,114.818l-105.039,0.586l-48.66,-112.474l-42.442,0l-24.626,111.888l-99.08,0l47.732,-218.405l88.609,0l-5.786,32.732c0,0 101.962,3.036 125.87,0.693c6.821,-0.669 8.796,-3.172 15.001,-14.063c3.809,-6.686 8.018,-19.618 8.907,-26.97c0.368,-3.047 1.059,-7.378 -0.132,-10.207c-1.25,-2.969 -3.844,-7.41 -7.368,-7.607c-22.636,-1.268 -131.844,-0.866 -131.844,-0.866l-0.004,0.022l-87.512,0Z"/><path d="M2703.894,924l15.351,-70.239c0,0 177.092,0.965 237.019,0.832c5.151,-0.011 58.466,-5.078 64.839,41.093c1.332,9.648 -3.742,31.91 -4.468,35.652c-3.253,16.759 -8.895,36.339 -13.135,49.527c-3.271,10.172 -7.59,22.611 -12.607,31.699c-3.642,6.596 -11.593,16.513 -19.551,23.09c-7.842,6.481 -18.384,14.179 -29.099,16.073c-12.143,2.147 -27.665,2.128 -27.665,2.128l55.692,114.818l-105.039,0.586l-48.66,-112.474l-42.442,0l-24.626,111.888l-99.08,0l47.732,-218.405l88.609,0l-5.786,32.732c0,0 101.962,3.036 125.87,0.693c6.821,-0.669 8.796,-3.172 15.001,-14.063c3.809,-6.686 8.018,-19.618 8.907,-26.97c0.368,-3.047 1.059,-7.378 -0.132,-10.207c-1.25,-2.969 -3.844,-7.41 -7.368,-7.607c-22.636,-1.268 -131.844,-0.866 -131.844,-0.866l-0.004,0.022l-87.512,0Z"/><path d="M647.17,924l15.351,-70.239c0,0 177.092,0.965 237.019,0.832c5.151,-0.011 58.466,-5.078 64.839,41.093c1.332,9.648 -3.742,31.91 -4.468,35.652c-3.253,16.759 -8.895,36.339 -13.135,49.527c-3.271,10.172 -7.59,22.611 -12.607,31.699c-3.642,6.596 -11.593,16.513 -19.551,23.09c-7.842,6.481 -18.384,14.179 -29.099,16.073c-12.143,2.147 -27.665,2.128 -27.665,2.128l55.692,114.818l-105.039,0.586l-48.66,-112.474l-42.442,0l-24.626,111.888l-99.08,0l47.732,-218.405l88.609,0l-5.786,32.732c0,0 101.962,3.036 125.87,0.693c6.821,-0.669 8.796,-3.172 15.001,-14.063c3.809,-6.686 8.018,-19.618 8.907,-26.97c0.368,-3.047 1.059,-7.378 -0.132,-10.207c-1.25,-2.969 -3.844,-7.41 -7.368,-7.607c-8.822,-0.494 -30.794,-0.735 -54.325,-0.844c-36.847,-0.171 -77.519,-0.022 -77.519,-0.022l-0.004,0.022l-87.512,0Z"/><path d="M2444.022,979.918l166.676,0l-13.263,66.657l-166.676,0l13.263,-66.657Zm-6.256,120.352l174.696,0l-17.049,68.988l-261.629,0l62.935,-314.674l255.785,0l-13.461,66.556l-168.402,0l-32.875,179.13Z" style="fill-rule:nonzero;"/><path d="M1808.714,1169.258l62.935,-314.674l106.09,0l-62.935,314.674l-106.09,0Z" style="fill-rule:nonzero;"/><path d="M2074.389,1104.525l15.734,-119.126l140.255,-130.814l121.824,0l-161.383,146.548l-71.925,62.036l-44.504,41.357Zm-108.338,64.733l62.935,-314.674l104.292,0l-62.935,314.674l-104.292,0Zm212.63,0l-75.971,-122.273l78.668,-71.026l115.53,193.3l-118.227,0Z" style="fill-rule:nonzero;"/><g><path d="M490.55,1625.396l14.754,-68.807l30.039,0c9.172,0 16.269,1.874 21.29,5.621c5.022,3.746 7.534,8.974 7.534,15.681c0,5.767 -1.454,10.763 -4.362,14.99c-2.907,4.226 -7.047,7.492 -12.421,9.799c-5.374,2.306 -11.728,3.459 -19.062,3.459l-24.007,0l9.017,-7.004l-5.605,26.26l-17.177,0Zm47.459,0l-15.113,-25.005l17.916,0l15.196,25.005l-17.998,0Zm-25.119,-24.397l-5.885,-7.552l22.01,0c5.647,0 10.034,-1.198 13.16,-3.594c3.127,-2.397 4.69,-5.868 4.69,-10.412c0,-3.36 -1.197,-5.848 -3.59,-7.463c-2.393,-1.615 -5.772,-2.422 -10.135,-2.422l-20.812,0l9.017,-7.728l-8.454,39.171Z" style="fill-rule:nonzero;"/><path d="M592.544,1584.281l35.552,0l-2.63,12.381l-35.552,0l2.63,-12.381Zm-4.853,28.304l40.233,0l-2.776,12.811l-57.138,0l14.754,-68.807l55.704,0l-2.776,12.811l-38.758,0l-9.243,43.185Z" style="fill-rule:nonzero;"/><path d="M638.725,1625.396l14.754,-68.807l29.787,0c9.228,0 16.36,1.88 21.395,5.641c5.036,3.76 7.553,9.006 7.553,15.74c0,5.807 -1.454,10.846 -4.362,15.117c-2.908,4.272 -7.049,7.561 -12.423,9.866c-5.374,2.306 -11.727,3.459 -19.06,3.459l-24.009,0l9.146,-7.277l-5.67,26.26l-17.112,0Zm22.341,-24.397l-6.012,-7.552l22.01,0c5.647,0 10.034,-1.198 13.16,-3.594c3.127,-2.397 4.69,-5.868 4.69,-10.412c0,-3.36 -1.197,-5.848 -3.59,-7.463c-2.393,-1.615 -5.772,-2.422 -10.137,-2.422l-20.811,0l9.081,-7.728l-8.391,39.171Z" style="fill-rule:nonzero;"/><path d="M748.376,1626.554c-7.193,0 -13.173,-1.3 -17.942,-3.901c-4.768,-2.602 -8.128,-6.255 -10.081,-10.958c-1.952,-4.704 -2.246,-10.24 -0.883,-16.609l8.242,-38.496l17.114,0l-8.2,38.281c-1.309,6.114 -0.738,10.674 1.711,13.68c2.449,3.005 6.432,4.508 11.95,4.508c5.152,0 9.283,-1.43 12.395,-4.291c3.112,-2.862 5.357,-7.514 6.735,-13.956l8.2,-38.221l16.819,0l-8.39,39.241c-2.178,10.169 -6.417,17.832 -12.717,22.989c-6.299,5.156 -14.617,7.735 -24.952,7.735Z" style="fill-rule:nonzero;"/><path d="M820.181,1584.281l35.552,0l-2.63,12.381l-35.552,0l2.63,-12.381Zm-4.853,28.304l40.233,0l-2.776,12.811l-57.138,0l14.754,-68.807l55.704,0l-2.776,12.811l-38.758,0l-9.243,43.185Z" style="fill-rule:nonzero;"/><path d="M892.099,1626.554c-4.017,0 -7.9,-0.335 -11.65,-1.004c-3.75,-0.669 -7.164,-1.593 -10.241,-2.772c-3.076,-1.181 -5.66,-2.486 -7.753,-3.915l6.984,-12.239c2.274,1.521 4.734,2.815 7.382,3.884c2.649,1.069 5.403,1.882 8.263,2.44c2.86,0.557 5.745,0.836 8.655,0.836c3.153,0 5.873,-0.322 8.161,-0.966c2.288,-0.644 4.044,-1.564 5.269,-2.76c1.226,-1.196 1.839,-2.622 1.839,-4.277c0,-1.602 -0.664,-2.899 -1.992,-3.89c-1.328,-0.992 -3.072,-1.829 -5.23,-2.511c-2.157,-0.683 -4.536,-1.342 -7.137,-1.978c-2.6,-0.636 -5.206,-1.396 -7.82,-2.281c-2.614,-0.885 -5,-2.005 -7.158,-3.36c-2.157,-1.357 -3.9,-3.084 -5.228,-5.18c-1.328,-2.097 -1.992,-4.712 -1.992,-7.845c0,-4.728 1.397,-8.838 4.192,-12.328c2.796,-3.491 6.722,-6.192 11.777,-8.105c5.055,-1.913 10.981,-2.869 17.778,-2.869c4.971,0 9.668,0.498 14.092,1.494c4.425,0.996 8.232,2.445 11.42,4.345l-6.414,12.221c-2.824,-1.744 -5.964,-3.061 -9.421,-3.952c-3.456,-0.892 -7.018,-1.338 -10.687,-1.338c-3.279,0 -6.087,0.361 -8.424,1.084c-2.336,0.722 -4.12,1.72 -5.352,2.995c-1.232,1.275 -1.869,2.74 -1.912,4.396c0,1.602 0.654,2.916 1.961,3.939c1.307,1.024 3.047,1.881 5.218,2.571c2.171,0.689 4.557,1.362 7.156,2.018c2.601,0.655 5.201,1.402 7.8,2.241c2.601,0.839 4.997,1.91 7.189,3.215c2.192,1.303 3.953,2.968 5.281,4.993c1.328,2.024 1.992,4.544 1.992,7.558c0,4.716 -1.405,8.823 -4.214,12.321c-2.809,3.497 -6.763,6.208 -11.861,8.134c-5.098,1.925 -11.073,2.887 -17.926,2.887Z" style="fill-rule:nonzero;"/><path d="M947.801,1625.396l11.937,-55.801l-23.576,0l2.817,-13.006l64.265,0l-2.817,13.006l-23.577,0l-11.935,55.801l-17.114,0Z" style="fill-rule:nonzero;"/><path d="M1034.901,1626.554c-7.488,0 -13.919,-1.261 -19.293,-3.783c-5.374,-2.523 -9.493,-6.025 -12.358,-10.507c-2.865,-4.482 -4.298,-9.658 -4.298,-15.528c0,-5.897 1.088,-11.352 3.265,-16.365c2.177,-5.013 5.285,-9.384 9.324,-13.113c4.04,-3.729 8.852,-6.632 14.436,-8.71c5.586,-2.079 11.772,-3.118 18.56,-3.118c7.488,0 13.919,1.261 19.293,3.784c5.374,2.522 9.493,6.024 12.358,10.505c2.866,4.482 4.299,9.658 4.299,15.528c0,5.897 -1.089,11.352 -3.267,16.365c-2.177,5.013 -5.285,9.384 -9.325,13.113c-4.039,3.729 -8.851,6.633 -14.436,8.711c-5.584,2.078 -11.77,3.116 -18.558,3.116Zm1.472,-13.496c4.152,0 7.881,-0.705 11.188,-2.116c3.308,-1.411 6.133,-3.366 8.477,-5.865c2.344,-2.499 4.128,-5.366 5.352,-8.601c1.225,-3.236 1.838,-6.657 1.838,-10.266c0,-3.438 -0.781,-6.453 -2.343,-9.045c-1.562,-2.592 -3.839,-4.612 -6.83,-6.062c-2.99,-1.451 -6.653,-2.176 -10.988,-2.176c-4.123,0 -7.846,0.705 -11.168,2.116c-3.321,1.411 -6.153,3.366 -8.497,5.865c-2.343,2.499 -4.127,5.367 -5.352,8.602c-1.225,3.235 -1.838,6.656 -1.838,10.264c0,3.412 0.781,6.42 2.343,9.025c1.562,2.605 3.838,4.633 6.829,6.084c2.991,1.45 6.655,2.175 10.99,2.175Z" style="fill-rule:nonzero;"/><path d="M1111.305,1626.554c-4.017,0 -7.9,-0.335 -11.65,-1.004c-3.75,-0.669 -7.164,-1.593 -10.241,-2.772c-3.076,-1.181 -5.66,-2.486 -7.753,-3.915l6.984,-12.239c2.274,1.521 4.734,2.815 7.382,3.884c2.649,1.069 5.403,1.882 8.263,2.44c2.86,0.557 5.745,0.836 8.655,0.836c3.153,0 5.873,-0.322 8.161,-0.966c2.288,-0.644 4.044,-1.564 5.269,-2.76c1.226,-1.196 1.839,-2.622 1.839,-4.277c0,-1.602 -0.664,-2.899 -1.992,-3.89c-1.328,-0.992 -3.072,-1.829 -5.23,-2.511c-2.157,-0.683 -4.536,-1.342 -7.137,-1.978c-2.6,-0.636 -5.206,-1.396 -7.82,-2.281c-2.614,-0.885 -5,-2.005 -7.158,-3.36c-2.157,-1.357 -3.9,-3.084 -5.228,-5.18c-1.328,-2.097 -1.992,-4.712 -1.992,-7.845c0,-4.728 1.397,-8.838 4.192,-12.328c2.796,-3.491 6.722,-6.192 11.777,-8.105c5.055,-1.913 10.981,-2.869 17.778,-2.869c4.971,0 9.668,0.498 14.092,1.494c4.425,0.996 8.232,2.445 11.42,4.345l-6.414,12.221c-2.824,-1.744 -5.964,-3.061 -9.421,-3.952c-3.456,-0.892 -7.018,-1.338 -10.687,-1.338c-3.279,0 -6.087,0.361 -8.424,1.084c-2.336,0.722 -4.12,1.72 -5.352,2.995c-1.232,1.275 -1.869,2.74 -1.912,4.396c0,1.602 0.654,2.916 1.961,3.939c1.307,1.024 3.047,1.881 5.218,2.571c2.171,0.689 4.557,1.362 7.156,2.018c2.601,0.655 5.201,1.402 7.8,2.241c2.601,0.839 4.997,1.91 7.189,3.215c2.192,1.303 3.953,2.968 5.281,4.993c1.328,2.024 1.992,4.544 1.992,7.558c0,4.716 -1.405,8.823 -4.214,12.321c-2.809,3.497 -6.763,6.208 -11.861,8.134c-5.098,1.925 -11.073,2.887 -17.926,2.887Z" style="fill-rule:nonzero;"/></g><g><path d="M1248.262,1625.396l47.703,-68.807l16.882,0l18.132,68.807l-17.073,0l-14.325,-60.94l6.77,0l-39.86,60.94l-18.229,0Zm19.675,-14.72l7.046,-12.084l38.004,0l2.04,12.084l-47.09,0Z" style="fill-rule:nonzero;"/><path d="M1376.427,1626.554c-7.503,0 -13.984,-1.255 -19.442,-3.764c-5.457,-2.51 -9.653,-6.005 -12.589,-10.487c-2.935,-4.482 -4.403,-9.67 -4.403,-15.566c0,-5.871 1.099,-11.319 3.297,-16.345c2.199,-5.026 5.318,-9.404 9.356,-13.133c4.04,-3.729 8.862,-6.632 14.468,-8.71c5.606,-2.079 11.839,-3.118 18.696,-3.118c6.588,0 12.409,1.041 17.465,3.124c5.056,2.083 8.877,5.095 11.463,9.037l-12.32,9.395c-1.884,-2.595 -4.299,-4.587 -7.247,-5.976c-2.946,-1.389 -6.445,-2.084 -10.496,-2.084c-4.18,0 -7.96,0.686 -11.337,2.058c-3.377,1.371 -6.262,3.287 -8.655,5.749c-2.392,2.46 -4.229,5.315 -5.51,8.562c-1.28,3.248 -1.92,6.728 -1.92,10.441c0,3.437 0.802,6.458 2.406,9.063c1.604,2.605 3.95,4.633 7.04,6.084c3.089,1.45 6.823,2.175 11.201,2.175c3.771,0 7.309,-0.652 10.613,-1.957c3.305,-1.304 6.308,-3.326 9.007,-6.065l10.069,9.633c-3.861,4.202 -8.433,7.233 -13.715,9.094c-5.281,1.86 -11.096,2.791 -17.445,2.791Z" style="fill-rule:nonzero;"/><path d="M1450.409,1626.554c-7.503,0 -13.984,-1.255 -19.442,-3.764c-5.457,-2.51 -9.653,-6.005 -12.589,-10.487c-2.935,-4.482 -4.403,-9.67 -4.403,-15.566c0,-5.871 1.099,-11.319 3.297,-16.345c2.199,-5.026 5.318,-9.404 9.356,-13.133c4.04,-3.729 8.862,-6.632 14.468,-8.71c5.606,-2.079 11.839,-3.118 18.696,-3.118c6.588,0 12.409,1.041 17.465,3.124c5.056,2.083 8.877,5.095 11.463,9.037l-12.32,9.395c-1.884,-2.595 -4.299,-4.587 -7.247,-5.976c-2.946,-1.389 -6.445,-2.084 -10.496,-2.084c-4.18,0 -7.96,0.686 -11.337,2.058c-3.377,1.371 -6.262,3.287 -8.655,5.749c-2.392,2.46 -4.229,5.315 -5.51,8.562c-1.28,3.248 -1.92,6.728 -1.92,10.441c0,3.437 0.802,6.458 2.406,9.063c1.604,2.605 3.95,4.633 7.04,6.084c3.089,1.45 6.823,2.175 11.201,2.175c3.771,0 7.309,-0.652 10.613,-1.957c3.305,-1.304 6.308,-3.326 9.007,-6.065l10.069,9.633c-3.861,4.202 -8.433,7.233 -13.715,9.094c-5.281,1.86 -11.096,2.791 -17.445,2.791Z" style="fill-rule:nonzero;"/><path d="M1513.427,1584.281l35.552,0l-2.63,12.381l-35.552,0l2.63,-12.381Zm-4.853,28.304l40.233,0l-2.776,12.811l-57.138,0l14.754,-68.807l55.704,0l-2.776,12.811l-38.758,0l-9.243,43.185Z" style="fill-rule:nonzero;"/><path d="M1585.345,1626.554c-4.017,0 -7.9,-0.335 -11.65,-1.004c-3.75,-0.669 -7.164,-1.593 -10.241,-2.772c-3.076,-1.181 -5.66,-2.486 -7.753,-3.915l6.984,-12.239c2.274,1.521 4.734,2.815 7.382,3.884c2.649,1.069 5.403,1.882 8.263,2.44c2.86,0.557 5.745,0.836 8.655,0.836c3.153,0 5.873,-0.322 8.161,-0.966c2.288,-0.644 4.044,-1.564 5.269,-2.76c1.226,-1.196 1.839,-2.622 1.839,-4.277c0,-1.602 -0.664,-2.899 -1.992,-3.89c-1.328,-0.992 -3.072,-1.829 -5.23,-2.511c-2.157,-0.683 -4.536,-1.342 -7.137,-1.978c-2.6,-0.636 -5.206,-1.396 -7.82,-2.281c-2.614,-0.885 -5,-2.005 -7.158,-3.36c-2.157,-1.357 -3.9,-3.084 -5.228,-5.18c-1.328,-2.097 -1.992,-4.712 -1.992,-7.845c0,-4.728 1.397,-8.838 4.192,-12.328c2.796,-3.491 6.722,-6.192 11.777,-8.105c5.055,-1.913 10.981,-2.869 17.778,-2.869c4.971,0 9.668,0.498 14.092,1.494c4.425,0.996 8.232,2.445 11.42,4.345l-6.414,12.221c-2.824,-1.744 -5.964,-3.061 -9.421,-3.952c-3.456,-0.892 -7.018,-1.338 -10.687,-1.338c-3.279,0 -6.087,0.361 -8.424,1.084c-2.336,0.722 -4.12,1.72 -5.352,2.995c-1.232,1.275 -1.869,2.74 -1.912,4.396c0,1.602 0.654,2.916 1.961,3.939c1.307,1.024 3.047,1.881 5.218,2.571c2.171,0.689 4.557,1.362 7.156,2.018c2.601,0.655 5.201,1.402 7.8,2.241c2.601,0.839 4.997,1.91 7.189,3.215c2.192,1.303 3.953,2.968 5.281,4.993c1.328,2.024 1.992,4.544 1.992,7.558c0,4.716 -1.405,8.823 -4.214,12.321c-2.809,3.497 -6.763,6.208 -11.861,8.134c-5.098,1.925 -11.073,2.887 -17.926,2.887Z" style="fill-rule:nonzero;"/><path d="M1665.125,1626.554c-7.488,0 -13.919,-1.261 -19.293,-3.783c-5.374,-2.523 -9.493,-6.025 -12.358,-10.507c-2.865,-4.482 -4.298,-9.658 -4.298,-15.528c0,-5.897 1.088,-11.352 3.265,-16.365c2.177,-5.013 5.285,-9.384 9.324,-13.113c4.04,-3.729 8.852,-6.632 14.436,-8.71c5.586,-2.079 11.772,-3.118 18.56,-3.118c7.488,0 13.919,1.261 19.293,3.784c5.374,2.522 9.493,6.024 12.358,10.505c2.866,4.482 4.299,9.658 4.299,15.528c0,5.897 -1.089,11.352 -3.267,16.365c-2.177,5.013 -5.285,9.384 -9.325,13.113c-4.039,3.729 -8.851,6.633 -14.436,8.711c-5.584,2.078 -11.77,3.116 -18.558,3.116Zm1.472,-13.496c4.152,0 7.881,-0.705 11.188,-2.116c3.308,-1.411 6.133,-3.366 8.477,-5.865c2.344,-2.499 4.128,-5.366 5.352,-8.601c1.225,-3.236 1.838,-6.657 1.838,-10.266c0,-3.438 -0.781,-6.453 -2.343,-9.045c-1.562,-2.592 -3.839,-4.612 -6.83,-6.062c-2.99,-1.451 -6.653,-2.176 -10.988,-2.176c-4.123,0 -7.846,0.705 -11.168,2.116c-3.321,1.411 -6.153,3.366 -8.497,5.865c-2.343,2.499 -4.127,5.367 -5.352,8.602c-1.225,3.235 -1.838,6.656 -1.838,10.264c0,3.412 0.781,6.42 2.343,9.025c1.562,2.605 3.838,4.633 6.829,6.084c2.991,1.45 6.655,2.175 10.99,2.175Z" style="fill-rule:nonzero;"/><path d="M1715.793,1625.396l14.754,-68.807l30.039,0c9.172,0 16.269,1.874 21.29,5.621c5.022,3.746 7.534,8.974 7.534,15.681c0,5.767 -1.454,10.763 -4.362,14.99c-2.907,4.226 -7.047,7.492 -12.421,9.799c-5.374,2.306 -11.728,3.459 -19.062,3.459l-24.007,0l9.017,-7.004l-5.605,26.26l-17.177,0Zm47.459,0l-15.113,-25.005l17.916,0l15.196,25.005l-17.998,0Zm-25.119,-24.397l-5.885,-7.552l22.01,0c5.647,0 10.034,-1.198 13.16,-3.594c3.127,-2.397 4.69,-5.868 4.69,-10.412c0,-3.36 -1.197,-5.848 -3.59,-7.463c-2.393,-1.615 -5.772,-2.422 -10.135,-2.422l-20.812,0l9.017,-7.728l-8.454,39.171Z" style="fill-rule:nonzero;"/><path d="M1793.253,1625.396l14.754,-68.807l17.112,0l-14.754,68.807l-17.112,0Z" style="fill-rule:nonzero;"/><path d="M1866.099,1626.554c-7.488,0 -13.919,-1.261 -19.293,-3.783c-5.374,-2.523 -9.493,-6.025 -12.358,-10.507c-2.865,-4.482 -4.298,-9.658 -4.298,-15.528c0,-5.897 1.088,-11.352 3.265,-16.365c2.177,-5.013 5.285,-9.384 9.324,-13.113c4.04,-3.729 8.852,-6.632 14.436,-8.71c5.586,-2.079 11.772,-3.118 18.56,-3.118c7.488,0 13.919,1.261 19.293,3.784c5.374,2.522 9.493,6.024 12.358,10.505c2.866,4.482 4.299,9.658 4.299,15.528c0,5.897 -1.089,11.352 -3.267,16.365c-2.177,5.013 -5.285,9.384 -9.325,13.113c-4.039,3.729 -8.851,6.633 -14.436,8.711c-5.584,2.078 -11.77,3.116 -18.558,3.116Zm1.472,-13.496c4.152,0 7.881,-0.705 11.188,-2.116c3.308,-1.411 6.133,-3.366 8.477,-5.865c2.344,-2.499 4.128,-5.366 5.352,-8.601c1.225,-3.236 1.838,-6.657 1.838,-10.266c0,-3.438 -0.781,-6.453 -2.343,-9.045c-1.562,-2.592 -3.839,-4.612 -6.83,-6.062c-2.99,-1.451 -6.653,-2.176 -10.988,-2.176c-4.123,0 -7.846,0.705 -11.168,2.116c-3.321,1.411 -6.153,3.366 -8.497,5.865c-2.343,2.499 -4.127,5.367 -5.352,8.602c-1.225,3.235 -1.838,6.656 -1.838,10.264c0,3.412 0.781,6.42 2.343,9.025c1.562,2.605 3.838,4.633 6.829,6.084c2.991,1.45 6.655,2.175 10.99,2.175Z" style="fill-rule:nonzero;"/><path d="M1942.504,1626.554c-4.017,0 -7.9,-0.335 -11.65,-1.004c-3.75,-0.669 -7.164,-1.593 -10.241,-2.772c-3.076,-1.181 -5.66,-2.486 -7.753,-3.915l6.984,-12.239c2.274,1.521 4.734,2.815 7.382,3.884c2.649,1.069 5.403,1.882 8.263,2.44c2.86,0.557 5.745,0.836 8.655,0.836c3.153,0 5.873,-0.322 8.161,-0.966c2.288,-0.644 4.044,-1.564 5.269,-2.76c1.226,-1.196 1.839,-2.622 1.839,-4.277c0,-1.602 -0.664,-2.899 -1.992,-3.89c-1.328,-0.992 -3.072,-1.829 -5.23,-2.511c-2.157,-0.683 -4.536,-1.342 -7.137,-1.978c-2.6,-0.636 -5.206,-1.396 -7.82,-2.281c-2.614,-0.885 -5,-2.005 -7.158,-3.36c-2.157,-1.357 -3.9,-3.084 -5.228,-5.18c-1.328,-2.097 -1.992,-4.712 -1.992,-7.845c0,-4.728 1.397,-8.838 4.192,-12.328c2.796,-3.491 6.722,-6.192 11.777,-8.105c5.055,-1.913 10.981,-2.869 17.778,-2.869c4.971,0 9.668,0.498 14.092,1.494c4.425,0.996 8.232,2.445 11.42,4.345l-6.414,12.221c-2.824,-1.744 -5.964,-3.061 -9.421,-3.952c-3.456,-0.892 -7.018,-1.338 -10.687,-1.338c-3.279,0 -6.087,0.361 -8.424,1.084c-2.336,0.722 -4.12,1.72 -5.352,2.995c-1.232,1.275 -1.869,2.74 -1.912,4.396c0,1.602 0.654,2.916 1.961,3.939c1.307,1.024 3.047,1.881 5.218,2.571c2.171,0.689 4.557,1.362 7.156,2.018c2.601,0.655 5.201,1.402 7.8,2.241c2.601,0.839 4.997,1.91 7.189,3.215c2.192,1.303 3.953,2.968 5.281,4.993c1.328,2.024 1.992,4.544 1.992,7.558c0,4.716 -1.405,8.823 -4.214,12.321c-2.809,3.497 -6.763,6.208 -11.861,8.134c-5.098,1.925 -11.073,2.887 -17.926,2.887Z" style="fill-rule:nonzero;"/></g><g><path d="M2083.952,1625.396l14.754,-68.807l17.112,0l-11.935,55.801l36.927,0l-2.817,13.006l-54.041,0Z" style="fill-rule:nonzero;"/><path d="M2180.535,1626.554c-7.193,0 -13.173,-1.3 -17.942,-3.901c-4.768,-2.602 -8.128,-6.255 -10.081,-10.958c-1.952,-4.704 -2.246,-10.24 -0.883,-16.609l8.242,-38.496l17.114,0l-8.2,38.281c-1.309,6.114 -0.738,10.674 1.711,13.68c2.449,3.005 6.432,4.508 11.95,4.508c5.152,0 9.283,-1.43 12.395,-4.291c3.112,-2.862 5.357,-7.514 6.735,-13.956l8.2,-38.221l16.819,0l-8.39,39.241c-2.178,10.169 -6.417,17.832 -12.717,22.989c-6.299,5.156 -14.617,7.735 -24.952,7.735Z" style="fill-rule:nonzero;"/><path d="M2227.807,1625.396l14.754,-68.807l35.601,0c8.019,0 14.147,1.346 18.382,4.039c4.235,2.692 6.353,6.6 6.353,11.723c0,4.299 -1.211,7.924 -3.634,10.872c-2.423,2.949 -5.628,5.184 -9.615,6.704c-3.987,1.519 -8.352,2.279 -13.094,2.279l2.78,-4.002c6.162,0 11.096,1.333 14.802,3.999c3.706,2.666 5.559,6.483 5.559,11.45c0,4.887 -1.436,8.943 -4.309,12.167c-2.872,3.224 -6.801,5.626 -11.789,7.206c-4.987,1.579 -10.685,2.368 -17.093,2.368l-38.697,0Zm19.533,-11.947l20.216,0c4.706,0 8.401,-0.841 11.084,-2.522c2.683,-1.681 4.024,-4.164 4.024,-7.447c0,-2.575 -0.996,-4.397 -2.989,-5.466c-1.992,-1.07 -4.687,-1.605 -8.084,-1.605l-22.476,0l2.44,-11.597l19.23,0c2.956,0 5.505,-0.365 7.646,-1.094c2.142,-0.729 3.78,-1.823 4.914,-3.281c1.135,-1.458 1.703,-3.244 1.703,-5.359c0,-2.272 -0.951,-3.93 -2.852,-4.975c-1.901,-1.044 -4.57,-1.567 -8.006,-1.567l-17.27,0l-9.58,44.912Z" style="fill-rule:nonzero;"/><path d="M2308.428,1625.396l14.754,-68.807l30.039,0c9.172,0 16.269,1.874 21.29,5.621c5.022,3.746 7.534,8.974 7.534,15.681c0,5.767 -1.454,10.763 -4.362,14.99c-2.907,4.226 -7.047,7.492 -12.421,9.799c-5.374,2.306 -11.728,3.459 -19.062,3.459l-24.007,0l9.017,-7.004l-5.605,26.26l-17.177,0Zm47.459,0l-15.113,-25.005l17.916,0l15.196,25.005l-17.998,0Zm-25.119,-24.397l-5.885,-7.552l22.01,0c5.647,0 10.034,-1.198 13.16,-3.594c3.127,-2.397 4.69,-5.868 4.69,-10.412c0,-3.36 -1.197,-5.848 -3.59,-7.463c-2.393,-1.615 -5.772,-2.422 -10.135,-2.422l-20.812,0l9.017,-7.728l-8.454,39.171Z" style="fill-rule:nonzero;"/><path d="M2385.888,1625.396l14.754,-68.807l17.112,0l-14.754,68.807l-17.112,0Z" style="fill-rule:nonzero;"/><path d="M2459.22,1626.554c-7.503,0 -13.984,-1.255 -19.442,-3.764c-5.457,-2.51 -9.653,-6.005 -12.589,-10.487c-2.935,-4.482 -4.403,-9.67 -4.403,-15.566c0,-5.871 1.099,-11.319 3.297,-16.345c2.199,-5.026 5.318,-9.404 9.356,-13.133c4.04,-3.729 8.862,-6.632 14.468,-8.71c5.606,-2.079 11.839,-3.118 18.696,-3.118c6.588,0 12.409,1.041 17.465,3.124c5.056,2.083 8.877,5.095 11.463,9.037l-12.32,9.395c-1.884,-2.595 -4.299,-4.587 -7.247,-5.976c-2.946,-1.389 -6.445,-2.084 -10.496,-2.084c-4.18,0 -7.96,0.686 -11.337,2.058c-3.377,1.371 -6.262,3.287 -8.655,5.749c-2.392,2.46 -4.229,5.315 -5.51,8.562c-1.28,3.248 -1.92,6.728 -1.92,10.441c0,3.437 0.802,6.458 2.406,9.063c1.604,2.605 3.95,4.633 7.04,6.084c3.089,1.45 6.823,2.175 11.201,2.175c3.771,0 7.309,-0.652 10.613,-1.957c3.305,-1.304 6.308,-3.326 9.007,-6.065l10.069,9.633c-3.861,4.202 -8.433,7.233 -13.715,9.094c-5.281,1.86 -11.096,2.791 -17.445,2.791Z" style="fill-rule:nonzero;"/><path d="M2486.502,1625.396l47.703,-68.807l16.882,0l18.132,68.807l-17.073,0l-14.325,-60.94l6.77,0l-39.86,60.94l-18.229,0Zm19.675,-14.72l7.046,-12.084l38.004,0l2.04,12.084l-47.09,0Z" style="fill-rule:nonzero;"/><path d="M2576.956,1625.396l14.754,-68.807l14.086,0l31.788,49.822l-5.653,-0.296l10.611,-49.525l16.862,0l-14.754,68.807l-14.086,0l-31.788,-49.822l5.653,0.296l-10.611,49.525l-16.862,0Z" style="fill-rule:nonzero;"/><path d="M2677.364,1625.396l11.937,-55.801l-23.576,0l2.817,-13.006l64.265,0l-2.817,13.006l-23.577,0l-11.935,55.801l-17.114,0Z" style="fill-rule:nonzero;"/><path d="M2751.773,1584.281l35.552,0l-2.63,12.381l-35.552,0l2.63,-12.381Zm-4.853,28.304l40.233,0l-2.776,12.811l-57.138,0l14.754,-68.807l55.704,0l-2.776,12.811l-38.758,0l-9.243,43.185Z" style="fill-rule:nonzero;"/><path d="M2823.69,1626.554c-4.017,0 -7.9,-0.335 -11.65,-1.004c-3.75,-0.669 -7.164,-1.593 -10.241,-2.772c-3.076,-1.181 -5.66,-2.486 -7.753,-3.915l6.984,-12.239c2.274,1.521 4.734,2.815 7.382,3.884c2.649,1.069 5.403,1.882 8.263,2.44c2.86,0.557 5.745,0.836 8.655,0.836c3.153,0 5.873,-0.322 8.161,-0.966c2.288,-0.644 4.044,-1.564 5.269,-2.76c1.226,-1.196 1.839,-2.622 1.839,-4.277c0,-1.602 -0.664,-2.899 -1.992,-3.89c-1.328,-0.992 -3.072,-1.829 -5.23,-2.511c-2.157,-0.683 -4.536,-1.342 -7.137,-1.978c-2.6,-0.636 -5.206,-1.396 -7.82,-2.281c-2.614,-0.885 -5,-2.005 -7.158,-3.36c-2.157,-1.357 -3.9,-3.084 -5.228,-5.18c-1.328,-2.097 -1.992,-4.712 -1.992,-7.845c0,-4.728 1.397,-8.838 4.192,-12.328c2.796,-3.491 6.722,-6.192 11.777,-8.105c5.055,-1.913 10.981,-2.869 17.778,-2.869c4.971,0 9.668,0.498 14.092,1.494c4.425,0.996 8.232,2.445 11.42,4.345l-6.414,12.221c-2.824,-1.744 -5.964,-3.061 -9.421,-3.952c-3.456,-0.892 -7.018,-1.338 -10.687,-1.338c-3.279,0 -6.087,0.361 -8.424,1.084c-2.336,0.722 -4.12,1.72 -5.352,2.995c-1.232,1.275 -1.869,2.74 -1.912,4.396c0,1.602 0.654,2.916 1.961,3.939c1.307,1.024 3.047,1.881 5.218,2.571c2.171,0.689 4.557,1.362 7.156,2.018c2.601,0.655 5.201,1.402 7.8,2.241c2.601,0.839 4.997,1.91 7.189,3.215c2.192,1.303 3.953,2.968 5.281,4.993c1.328,2.024 1.992,4.544 1.992,7.558c0,4.716 -1.405,8.823 -4.214,12.321c-2.809,3.497 -6.763,6.208 -11.861,8.134c-5.098,1.925 -11.073,2.887 -17.926,2.887Z" style="fill-rule:nonzero;"/></g><g><path d="M2971.051,1203.18l-89.666,294.636l-2389.049,0l92.59,-294.636l2386.125,0Z"/><path d="M744.505,1235.791l-75.477,233.477l-130.407,0l77.97,-233.477l127.914,0Z" style="fill:#f60c14;"/><path d="M904.395,1235.791l-75.477,233.477l-130.407,0l77.97,-233.477l127.914,0Z" style="fill:#f60c14;"/><path d="M1064.352,1235.791l-75.477,233.477l-130.407,0l77.97,-233.477l127.914,0Z" style="fill:#f60c14;"/><path d="M1225.353,1235.791l-75.477,233.477l-130.407,0l77.97,-233.477l127.914,0Z" style="fill:#fff;"/><path d="M1386.36,1235.791l-75.477,233.477l-130.407,0l77.97,-233.477l127.914,0Z" style="fill:#fff;"/><path d="M1547.336,1235.791l-75.477,233.477l-130.407,0l77.97,-233.477l127.914,0Z" style="fill:#fff;"/><path d="M1715.31,1235.791l-75.477,233.477l-130.407,0l77.97,-233.477l127.914,0Z" style="fill:#fff;"/><g><path d="M1894.628,1317.328l-25.576,77.579l-84.325,-0.113l23.803,-77.825l86.098,0.359Z" style="fill:#6d6d6d;"/><path d="M2061.221,1317.328l-25.576,77.579l-84.325,-0.113l23.803,-77.825l86.098,0.359Z" style="fill:#6d6d6d;"/><path d="M2230.806,1317.328l-25.576,77.579l-84.325,-0.113l23.803,-77.825l86.098,0.359Z" style="fill:#6d6d6d;"/><path d="M2398.598,1317.328l-25.576,77.579l-84.325,-0.113l23.803,-77.825l86.098,0.359Z" style="fill:#6d6d6d;"/><path d="M2564.518,1317.328l-25.576,77.579l-84.325,-0.113l23.803,-77.825l86.098,0.359Z" style="fill:#6d6d6d;"/><path d="M2730.438,1317.328l-25.576,77.579l-84.325,-0.113l23.803,-77.825l86.098,0.359Z" style="fill:#6d6d6d;"/><path d="M2894.887,1317.328l-25.576,77.579l-84.325,-0.113l23.803,-77.825l86.098,0.359Z" style="fill:#6d6d6d;"/><path d="M2787.915,1394.653l-22.691,74.616l-87.127,0l24.958,-74.735l84.86,0.119Zm-59.052,-77.399l27.204,-81.462l80.157,0l-24.59,80.86l-82.772,0.602Z" style="fill:#6d6d6d;"/><path d="M2623.759,1394.653l-22.691,74.616l-87.127,0l24.958,-74.735l84.86,0.119Zm-59.052,-77.399l27.204,-81.462l80.157,0l-24.59,80.86l-82.772,0.602Z" style="fill:#6d6d6d;"/><path d="M2455.948,1394.653l-22.691,74.616l-87.127,0l24.958,-74.735l84.86,0.119Zm-59.052,-77.399l27.204,-81.462l80.157,0l-24.59,80.86l-82.772,0.602Z" style="fill:#6d6d6d;"/><path d="M2289.043,1394.653l-22.691,74.616l-87.127,0l24.958,-74.735l84.86,0.119Zm-59.052,-77.399l27.204,-81.462l80.157,0l-24.59,80.86l-82.772,0.602Z" style="fill:#6d6d6d;"/><path d="M2120.92,1394.653l-22.691,74.616l-87.127,0l24.958,-74.735l84.86,0.119Zm-59.052,-77.399l27.204,-81.462l80.157,0l-24.59,80.86l-82.772,0.602Z" style="fill:#6d6d6d;"/><path d="M1954.015,1394.653l-22.691,74.616l-87.127,0l24.958,-74.735l84.86,0.119Zm-59.052,-77.399l27.204,-81.462l80.157,0l-24.59,80.86l-82.772,0.602Z" style="fill:#6d6d6d;"/><path d="M1784.673,1394.653l-22.691,74.616l-87.127,0l24.958,-74.735l84.86,0.119Zm-59.052,-77.399l27.204,-81.462l80.157,0l-24.59,80.86l-82.772,0.602Z" style="fill:#6d6d6d;"/></g></g></svg>