<?xml version="1.0" encoding="UTF-8" standalone="no"?><!DOCTYPE svg PUBLIC "-//W3C//DTD SVG 1.1//EN" "http://www.w3.org/Graphics/SVG/1.1/DTD/svg11.dtd"><svg width="100%" height="100%" viewBox="0 0 2835 1182" version="1.1" xmlns="http://www.w3.org/2000/svg" xmlns:xlink="http://www.w3.org/1999/xlink" xml:space="preserve" xmlns:serif="http://www.serif.com/" style="fill-rule:evenodd;clip-rule:evenodd;stroke-linejoin:round;stroke-miterlimit:2;"><g><path d="M2730.808,550.854l-96.261,316.306l-2564.763,0l99.399,-316.306l2561.624,0Z"/><path d="M340.501,585.864l-81.029,250.65l-139.998,0l83.705,-250.65l137.322,0Z" style="fill:#f60c14;"/><path d="M512.15,585.864l-81.029,250.65l-139.998,0l83.705,-250.65l137.322,0Z" style="fill:#f60c14;"/><path d="M683.872,585.864l-81.029,250.65l-139.998,0l83.705,-250.65l137.322,0Z" style="fill:#f60c14;"/><path d="M856.714,585.864l-81.029,250.65l-139.998,0l83.705,-250.65l137.322,0Z" style="fill:#fff;"/><path d="M1029.564,585.864l-81.029,250.65l-139.998,0l83.705,-250.65l137.322,0Z" style="fill:#fff;"/><path d="M1202.379,585.864l-81.029,250.65l-139.998,0l83.705,-250.65l137.322,0Z" style="fill:#fff;"/><path d="M1382.707,585.864l-81.029,250.65l-139.998,0l83.705,-250.65l137.322,0Z" style="fill:#fff;"/><g><path d="M1575.215,673.398l-27.457,83.285l-90.527,-0.122l25.554,-83.549l92.431,0.386Z" style="fill:#6d6d6d;"/><path d="M1754.06,673.398l-27.457,83.285l-90.527,-0.122l25.554,-83.549l92.431,0.386Z" style="fill:#6d6d6d;"/><path d="M1936.118,673.398l-27.457,83.285l-90.527,-0.122l25.554,-83.549l92.431,0.386Z" style="fill:#6d6d6d;"/><path d="M2116.251,673.398l-27.457,83.285l-90.527,-0.122l25.554,-83.549l92.431,0.386Z" style="fill:#6d6d6d;"/><path d="M2294.375,673.398l-27.457,83.285l-90.527,-0.122l25.554,-83.549l92.431,0.386Z" style="fill:#6d6d6d;"/><path d="M2472.499,673.398l-27.457,83.285l-90.527,-0.122l25.554,-83.549l92.431,0.386Z" style="fill:#6d6d6d;"/><path d="M2649.042,673.398l-27.457,83.285l-90.527,-0.122l25.554,-83.549l92.431,0.386Z" style="fill:#6d6d6d;"/><path d="M2534.202,756.409l-24.36,80.104l-93.535,0l26.794,-80.232l91.101,0.128Zm-63.395,-83.092l29.205,-87.454l86.053,0l-26.398,86.807l-88.86,0.646Z" style="fill:#6d6d6d;"/><path d="M2357.973,756.409l-24.36,80.104l-93.535,0l26.794,-80.232l91.101,0.128Zm-63.395,-83.092l29.205,-87.454l86.053,0l-26.398,86.807l-88.86,0.646Z" style="fill:#6d6d6d;"/><path d="M2177.819,756.409l-24.36,80.104l-93.535,0l26.794,-80.232l91.101,0.128Zm-63.395,-83.092l29.205,-87.454l86.053,0l-26.398,86.807l-88.86,0.646Z" style="fill:#6d6d6d;"/><path d="M1998.638,756.409l-24.36,80.104l-93.535,0l26.794,-80.232l91.101,0.128Zm-63.395,-83.092l29.205,-87.454l86.053,0l-26.398,86.807l-88.86,0.646Z" style="fill:#6d6d6d;"/><path d="M1818.15,756.409l-24.36,80.104l-93.535,0l26.794,-80.232l91.101,0.128Zm-63.395,-83.092l29.205,-87.454l86.053,0l-26.398,86.807l-88.86,0.646Z" style="fill:#6d6d6d;"/><path d="M1638.969,756.409l-24.36,80.104l-93.535,0l26.794,-80.232l91.101,0.128Zm-63.395,-83.092l29.205,-87.454l86.053,0l-26.398,86.807l-88.86,0.646Z" style="fill:#6d6d6d;"/><path d="M1457.173,756.409l-24.36,80.104l-93.535,0l26.794,-80.232l91.101,0.128Zm-63.395,-83.092l29.205,-87.454l86.053,0l-26.398,86.807l-88.86,0.646Z" style="fill:#6d6d6d;"/></g></g><g><path d="M1778.464,1004.124l15.839,-73.867l18.371,0l-12.813,59.905l39.643,0l-3.025,13.962l-58.016,0Z" style="fill-rule:nonzero;"/><path d="M1882.15,1005.367c-7.722,0 -14.142,-1.396 -19.262,-4.188c-5.118,-2.793 -8.726,-6.715 -10.822,-11.764c-2.095,-5.05 -2.411,-10.993 -0.948,-17.83l8.848,-41.328l18.373,0l-8.804,41.097c-1.405,6.563 -0.793,11.459 1.837,14.686c2.629,3.226 6.906,4.839 12.829,4.839c5.531,0 9.966,-1.536 13.306,-4.607c3.341,-3.072 5.751,-8.067 7.23,-14.983l8.804,-41.033l18.056,0l-9.007,42.127c-2.338,10.917 -6.889,19.144 -13.653,24.68c-6.762,5.536 -15.692,8.303 -26.787,8.303Z" style="fill-rule:nonzero;"/><path d="M1932.898,1004.124l15.839,-73.867l38.22,0c8.609,0 15.187,1.445 19.734,4.336c4.547,2.89 6.82,7.085 6.82,12.585c0,4.616 -1.301,8.506 -3.902,11.672c-2.601,3.166 -6.042,5.565 -10.322,7.197c-4.28,1.631 -8.966,2.447 -14.058,2.447l2.984,-4.297c6.615,0 11.912,1.431 15.891,4.294c3.979,2.862 5.968,6.96 5.968,12.292c0,5.247 -1.542,9.601 -4.626,13.062c-3.083,3.461 -7.302,6.04 -12.656,7.736c-5.354,1.695 -11.471,2.542 -18.35,2.542l-41.543,0Zm20.97,-12.826l21.703,0c5.052,0 9.019,-0.902 11.899,-2.707c2.88,-1.805 4.32,-4.47 4.32,-7.995c0,-2.765 -1.07,-4.721 -3.209,-5.868c-2.139,-1.149 -5.032,-1.723 -8.678,-1.723l-24.129,0l2.62,-12.45l20.644,0c3.174,0 5.91,-0.391 8.208,-1.174c2.299,-0.783 4.058,-1.957 5.275,-3.522c1.219,-1.565 1.828,-3.483 1.828,-5.753c0,-2.439 -1.021,-4.219 -3.062,-5.341c-2.041,-1.121 -4.906,-1.682 -8.595,-1.682l-18.541,0l-10.285,48.215Z" style="fill-rule:nonzero;"/><path d="M2019.45,1004.124l15.839,-73.867l32.248,0c9.847,0 17.465,2.012 22.856,6.035c5.392,4.022 8.088,9.634 8.088,16.834c0,6.191 -1.561,11.555 -4.683,16.093c-3.121,4.536 -7.566,8.043 -13.334,10.52c-5.769,2.475 -12.59,3.713 -20.464,3.713l-25.773,0l9.68,-7.519l-6.018,28.192l-18.44,0Zm50.95,0l-16.225,-26.845l19.234,0l16.313,26.845l-19.322,0Zm-26.966,-26.192l-6.318,-8.107l23.628,0c6.062,0 10.772,-1.286 14.128,-3.858c3.356,-2.573 5.035,-6.299 5.035,-11.177c0,-3.608 -1.285,-6.278 -3.854,-8.012c-2.569,-1.733 -6.196,-2.6 -10.881,-2.6l-22.343,0l9.68,-8.297l-9.076,42.052Z" style="fill-rule:nonzero;"/><path d="M2102.607,1004.124l15.839,-73.867l18.371,0l-15.839,73.867l-18.371,0Z" style="fill-rule:nonzero;"/><path d="M2181.332,1005.367c-8.055,0 -15.013,-1.347 -20.872,-4.041c-5.858,-2.694 -10.363,-6.447 -13.515,-11.258c-3.151,-4.811 -4.727,-10.382 -4.727,-16.711c0,-6.303 1.18,-12.152 3.539,-17.547c2.361,-5.396 5.709,-10.096 10.045,-14.099c4.337,-4.003 9.514,-7.12 15.532,-9.35c6.019,-2.231 12.709,-3.347 20.072,-3.347c7.072,0 13.322,1.118 18.749,3.354c5.428,2.236 9.53,5.47 12.306,9.702l-13.227,10.086c-2.022,-2.785 -4.616,-4.924 -7.78,-6.416c-3.163,-1.492 -6.919,-2.237 -11.268,-2.237c-4.488,0 -8.545,0.736 -12.171,2.209c-3.625,1.472 -6.722,3.529 -9.292,6.172c-2.568,2.641 -4.54,5.705 -5.915,9.192c-1.374,3.487 -2.061,7.223 -2.061,11.209c0,3.69 0.861,6.933 2.583,9.73c1.722,2.796 4.241,4.973 7.557,6.531c3.316,1.556 7.325,2.335 12.025,2.335c4.048,0 7.846,-0.7 11.393,-2.101c3.549,-1.4 6.772,-3.571 9.67,-6.511l10.81,10.341c-4.145,4.511 -9.053,7.765 -14.724,9.763c-5.67,1.997 -11.913,2.996 -18.728,2.996Z" style="fill-rule:nonzero;"/><path d="M2210.621,1004.124l51.211,-73.867l18.123,0l19.465,73.867l-18.329,0l-15.378,-65.422l7.267,0l-42.791,65.422l-19.57,0Zm21.122,-15.802l7.564,-12.973l40.799,0l2.19,12.973l-50.554,0Z" style="fill-rule:nonzero;"/><path d="M2307.728,1004.124l15.839,-73.867l15.122,0l34.126,53.486l-6.069,-0.318l11.392,-53.168l18.102,0l-15.839,73.867l-15.122,0l-34.126,-53.486l6.069,0.318l-11.392,53.168l-18.102,0Z" style="fill-rule:nonzero;"/><path d="M2415.521,1004.124l12.815,-59.905l-25.31,0l3.025,-13.962l68.992,0l-3.025,13.962l-25.311,0l-12.813,59.905l-18.373,0Z" style="fill-rule:nonzero;"/><path d="M2495.402,959.985l38.167,0l-2.823,13.291l-38.167,0l2.823,-13.291Zm-5.21,30.386l43.193,0l-2.981,13.753l-61.341,0l15.839,-73.867l59.801,0l-2.981,13.753l-41.609,0l-9.923,46.362Z" style="fill-rule:nonzero;"/><path d="M2572.609,1005.367c-4.312,0 -8.481,-0.359 -12.507,-1.078c-4.026,-0.718 -7.691,-1.71 -10.994,-2.976c-3.302,-1.267 -6.077,-2.668 -8.323,-4.203l7.497,-13.139c2.441,1.632 5.082,3.022 7.925,4.17c2.844,1.148 5.801,2.021 8.871,2.62c3.07,0.598 6.167,0.897 9.292,0.897c3.385,0 6.305,-0.346 8.761,-1.037c2.456,-0.691 4.342,-1.679 5.657,-2.963c1.316,-1.284 1.975,-2.815 1.975,-4.592c0,-1.72 -0.713,-3.112 -2.139,-4.176c-1.426,-1.065 -3.298,-1.964 -5.615,-2.696c-2.316,-0.733 -4.87,-1.441 -7.662,-2.124c-2.791,-0.683 -5.589,-1.499 -8.395,-2.449c-2.806,-0.95 -5.368,-2.152 -7.685,-3.608c-2.316,-1.456 -4.187,-3.31 -5.613,-5.561c-1.426,-2.251 -2.139,-5.059 -2.139,-8.422c0,-5.076 1.5,-9.488 4.501,-13.235c3.002,-3.747 7.216,-6.648 12.643,-8.701c5.427,-2.053 11.789,-3.08 19.085,-3.08c5.336,0 10.379,0.535 15.129,1.604c4.751,1.07 8.837,2.624 12.26,4.665l-6.886,13.12c-3.031,-1.872 -6.402,-3.286 -10.114,-4.242c-3.71,-0.957 -7.534,-1.436 -11.473,-1.436c-3.52,0 -6.535,0.388 -9.044,1.164c-2.508,0.775 -4.423,1.847 -5.745,3.215c-1.322,1.369 -2.006,2.942 -2.052,4.719c0,1.72 0.702,3.13 2.105,4.229c1.404,1.099 3.271,2.019 5.602,2.76c2.331,0.74 4.892,1.462 7.683,2.167c2.792,0.703 5.583,1.505 8.374,2.406c2.792,0.9 5.365,2.051 7.718,3.451c2.354,1.399 4.243,3.186 5.669,5.36c1.426,2.173 2.139,4.878 2.139,8.114c0,5.063 -1.508,9.472 -4.524,13.227c-3.016,3.754 -7.26,6.665 -12.733,8.732c-5.473,2.067 -11.888,3.1 -19.244,3.1Z" style="fill-rule:nonzero;"/></g><g><path d="M881.308,1004.124l51.211,-73.867l18.123,0l19.465,73.867l-18.329,0l-15.378,-65.422l7.267,0l-42.791,65.422l-19.57,0Zm21.122,-15.802l7.564,-12.973l40.799,0l2.19,12.973l-50.554,0Z" style="fill-rule:nonzero;"/><path d="M1018.899,1005.367c-8.055,0 -15.013,-1.347 -20.872,-4.041c-5.858,-2.694 -10.363,-6.447 -13.515,-11.258c-3.151,-4.811 -4.727,-10.382 -4.727,-16.711c0,-6.303 1.18,-12.152 3.539,-17.547c2.361,-5.396 5.709,-10.096 10.045,-14.099c4.337,-4.003 9.514,-7.12 15.532,-9.35c6.019,-2.231 12.709,-3.347 20.072,-3.347c7.072,0 13.322,1.118 18.749,3.354c5.428,2.236 9.53,5.47 12.306,9.702l-13.227,10.086c-2.022,-2.785 -4.616,-4.924 -7.78,-6.416c-3.163,-1.492 -6.919,-2.237 -11.268,-2.237c-4.488,0 -8.545,0.736 -12.171,2.209c-3.625,1.472 -6.722,3.529 -9.292,6.172c-2.568,2.641 -4.54,5.705 -5.915,9.192c-1.374,3.487 -2.061,7.223 -2.061,11.209c0,3.69 0.861,6.933 2.583,9.73c1.722,2.796 4.241,4.973 7.557,6.531c3.316,1.556 7.325,2.335 12.025,2.335c4.048,0 7.846,-0.7 11.393,-2.101c3.549,-1.4 6.772,-3.571 9.67,-6.511l10.81,10.341c-4.145,4.511 -9.053,7.765 -14.724,9.763c-5.67,1.997 -11.913,2.996 -18.728,2.996Z" style="fill-rule:nonzero;"/><path d="M1098.323,1005.367c-8.055,0 -15.013,-1.347 -20.872,-4.041c-5.858,-2.694 -10.363,-6.447 -13.515,-11.258c-3.151,-4.811 -4.727,-10.382 -4.727,-16.711c0,-6.303 1.18,-12.152 3.539,-17.547c2.361,-5.396 5.709,-10.096 10.045,-14.099c4.337,-4.003 9.514,-7.12 15.532,-9.35c6.019,-2.231 12.709,-3.347 20.072,-3.347c7.072,0 13.322,1.118 18.749,3.354c5.428,2.236 9.53,5.47 12.306,9.702l-13.227,10.086c-2.022,-2.785 -4.616,-4.924 -7.78,-6.416c-3.163,-1.492 -6.919,-2.237 -11.268,-2.237c-4.488,0 -8.545,0.736 -12.171,2.209c-3.625,1.472 -6.722,3.529 -9.292,6.172c-2.568,2.641 -4.54,5.705 -5.915,9.192c-1.374,3.487 -2.061,7.223 -2.061,11.209c0,3.69 0.861,6.933 2.583,9.73c1.722,2.796 4.241,4.973 7.557,6.531c3.316,1.556 7.325,2.335 12.025,2.335c4.048,0 7.846,-0.7 11.393,-2.101c3.549,-1.4 6.772,-3.571 9.67,-6.511l10.81,10.341c-4.145,4.511 -9.053,7.765 -14.724,9.763c-5.67,1.997 -11.913,2.996 -18.728,2.996Z" style="fill-rule:nonzero;"/><path d="M1165.977,959.985l38.167,0l-2.823,13.291l-38.167,0l2.823,-13.291Zm-5.21,30.386l43.193,0l-2.981,13.753l-61.341,0l15.839,-73.867l59.801,0l-2.981,13.753l-41.609,0l-9.923,46.362Z" style="fill-rule:nonzero;"/><path d="M1243.183,1005.367c-4.312,0 -8.481,-0.359 -12.507,-1.078c-4.026,-0.718 -7.691,-1.71 -10.994,-2.976c-3.302,-1.267 -6.077,-2.668 -8.323,-4.203l7.497,-13.139c2.441,1.632 5.082,3.022 7.925,4.17c2.844,1.148 5.801,2.021 8.871,2.62c3.07,0.598 6.167,0.897 9.292,0.897c3.385,0 6.305,-0.346 8.761,-1.037c2.456,-0.691 4.342,-1.679 5.657,-2.963c1.316,-1.284 1.975,-2.815 1.975,-4.592c0,-1.72 -0.713,-3.112 -2.139,-4.176c-1.426,-1.065 -3.298,-1.964 -5.615,-2.696c-2.316,-0.733 -4.87,-1.441 -7.662,-2.124c-2.791,-0.683 -5.589,-1.499 -8.395,-2.449c-2.806,-0.95 -5.368,-2.152 -7.685,-3.608c-2.316,-1.456 -4.187,-3.31 -5.613,-5.561c-1.426,-2.251 -2.139,-5.059 -2.139,-8.422c0,-5.076 1.5,-9.488 4.501,-13.235c3.002,-3.747 7.216,-6.648 12.643,-8.701c5.427,-2.053 11.789,-3.08 19.085,-3.08c5.336,0 10.379,0.535 15.129,1.604c4.751,1.07 8.837,2.624 12.26,4.665l-6.886,13.12c-3.031,-1.872 -6.402,-3.286 -10.114,-4.242c-3.71,-0.957 -7.534,-1.436 -11.473,-1.436c-3.52,0 -6.535,0.388 -9.044,1.164c-2.508,0.775 -4.423,1.847 -5.745,3.215c-1.322,1.369 -2.006,2.942 -2.052,4.719c0,1.72 0.702,3.13 2.105,4.229c1.404,1.099 3.271,2.019 5.602,2.76c2.331,0.74 4.892,1.462 7.683,2.167c2.792,0.703 5.583,1.505 8.374,2.406c2.792,0.9 5.365,2.051 7.718,3.451c2.354,1.399 4.243,3.186 5.669,5.36c1.426,2.173 2.139,4.878 2.139,8.114c0,5.063 -1.508,9.472 -4.524,13.227c-3.016,3.754 -7.26,6.665 -12.733,8.732c-5.473,2.067 -11.888,3.1 -19.244,3.1Z" style="fill-rule:nonzero;"/><path d="M1328.831,1005.367c-8.039,0 -14.943,-1.354 -20.712,-4.061c-5.769,-2.708 -10.191,-6.468 -13.267,-11.28c-3.076,-4.811 -4.614,-10.368 -4.614,-16.67c0,-6.33 1.169,-12.186 3.506,-17.568c2.337,-5.382 5.673,-10.074 10.009,-14.078c4.337,-4.003 9.503,-7.12 15.498,-9.35c5.996,-2.231 12.638,-3.347 19.925,-3.347c8.039,0 14.943,1.354 20.712,4.063c5.769,2.707 10.191,6.467 13.267,11.278c3.077,4.811 4.616,10.368 4.616,16.67c0,6.33 -1.169,12.186 -3.507,17.568c-2.337,5.382 -5.674,10.074 -10.011,14.078c-4.336,4.003 -9.502,7.121 -15.498,9.352c-5.995,2.23 -12.636,3.345 -19.923,3.345Zm1.58,-14.488c4.457,0 8.461,-0.757 12.01,-2.272c3.551,-1.515 6.584,-3.614 9.101,-6.297c2.516,-2.683 4.431,-5.761 5.745,-9.233c1.315,-3.474 1.973,-7.147 1.973,-11.021c0,-3.691 -0.839,-6.928 -2.516,-9.71c-1.677,-2.782 -4.121,-4.951 -7.333,-6.508c-3.21,-1.558 -7.142,-2.336 -11.797,-2.336c-4.427,0 -8.423,0.757 -11.989,2.272c-3.565,1.515 -6.606,3.614 -9.122,6.297c-2.515,2.683 -4.43,5.762 -5.745,9.235c-1.315,3.472 -1.973,7.145 -1.973,11.019c0,3.663 0.839,6.892 2.516,9.688c1.677,2.796 4.121,4.973 7.331,6.531c3.211,1.556 7.144,2.335 11.798,2.335Z" style="fill-rule:nonzero;"/><path d="M1383.226,1004.124l15.839,-73.867l32.248,0c9.847,0 17.465,2.012 22.856,6.035c5.392,4.022 8.088,9.634 8.088,16.834c0,6.191 -1.561,11.555 -4.683,16.093c-3.121,4.536 -7.566,8.043 -13.334,10.52c-5.769,2.475 -12.59,3.713 -20.464,3.713l-25.773,0l9.68,-7.519l-6.018,28.192l-18.44,0Zm50.95,0l-16.225,-26.845l19.234,0l16.313,26.845l-19.322,0Zm-26.966,-26.192l-6.318,-8.107l23.628,0c6.062,0 10.772,-1.286 14.128,-3.858c3.356,-2.573 5.035,-6.299 5.035,-11.177c0,-3.608 -1.285,-6.278 -3.854,-8.012c-2.569,-1.733 -6.196,-2.6 -10.881,-2.6l-22.343,0l9.68,-8.297l-9.076,42.052Z" style="fill-rule:nonzero;"/><path d="M1466.384,1004.124l15.839,-73.867l18.371,0l-15.839,73.867l-18.371,0Z" style="fill-rule:nonzero;"/><path d="M1544.587,1005.367c-8.039,0 -14.943,-1.354 -20.712,-4.061c-5.769,-2.708 -10.191,-6.468 -13.267,-11.28c-3.076,-4.811 -4.614,-10.368 -4.614,-16.67c0,-6.33 1.169,-12.186 3.506,-17.568c2.337,-5.382 5.673,-10.074 10.009,-14.078c4.337,-4.003 9.503,-7.12 15.498,-9.35c5.996,-2.231 12.638,-3.347 19.925,-3.347c8.039,0 14.943,1.354 20.712,4.063c5.769,2.707 10.191,6.467 13.267,11.278c3.077,4.811 4.616,10.368 4.616,16.67c0,6.33 -1.169,12.186 -3.507,17.568c-2.337,5.382 -5.674,10.074 -10.011,14.078c-4.336,4.003 -9.502,7.121 -15.498,9.352c-5.995,2.23 -12.636,3.345 -19.923,3.345Zm1.58,-14.488c4.457,0 8.461,-0.757 12.01,-2.272c3.551,-1.515 6.584,-3.614 9.101,-6.297c2.516,-2.683 4.431,-5.761 5.745,-9.233c1.315,-3.474 1.973,-7.147 1.973,-11.021c0,-3.691 -0.839,-6.928 -2.516,-9.71c-1.677,-2.782 -4.121,-4.951 -7.333,-6.508c-3.21,-1.558 -7.142,-2.336 -11.797,-2.336c-4.427,0 -8.423,0.757 -11.989,2.272c-3.565,1.515 -6.606,3.614 -9.122,6.297c-2.515,2.683 -4.43,5.762 -5.745,9.235c-1.315,3.472 -1.973,7.145 -1.973,11.019c0,3.663 0.839,6.892 2.516,9.688c1.677,2.796 4.121,4.973 7.331,6.531c3.211,1.556 7.144,2.335 11.798,2.335Z" style="fill-rule:nonzero;"/><path d="M1626.611,1005.367c-4.312,0 -8.481,-0.359 -12.507,-1.078c-4.026,-0.718 -7.691,-1.71 -10.994,-2.976c-3.302,-1.267 -6.077,-2.668 -8.323,-4.203l7.497,-13.139c2.441,1.632 5.082,3.022 7.925,4.17c2.844,1.148 5.801,2.021 8.871,2.62c3.07,0.598 6.167,0.897 9.292,0.897c3.385,0 6.305,-0.346 8.761,-1.037c2.456,-0.691 4.342,-1.679 5.657,-2.963c1.316,-1.284 1.975,-2.815 1.975,-4.592c0,-1.72 -0.713,-3.112 -2.139,-4.176c-1.426,-1.065 -3.298,-1.964 -5.615,-2.696c-2.316,-0.733 -4.87,-1.441 -7.662,-2.124c-2.791,-0.683 -5.589,-1.499 -8.395,-2.449c-2.806,-0.95 -5.368,-2.152 -7.685,-3.608c-2.316,-1.456 -4.187,-3.31 -5.613,-5.561c-1.426,-2.251 -2.139,-5.059 -2.139,-8.422c0,-5.076 1.5,-9.488 4.501,-13.235c3.002,-3.747 7.216,-6.648 12.643,-8.701c5.427,-2.053 11.789,-3.08 19.085,-3.08c5.336,0 10.379,0.535 15.129,1.604c4.751,1.07 8.837,2.624 12.26,4.665l-6.886,13.12c-3.031,-1.872 -6.402,-3.286 -10.114,-4.242c-3.71,-0.957 -7.534,-1.436 -11.473,-1.436c-3.52,0 -6.535,0.388 -9.044,1.164c-2.508,0.775 -4.423,1.847 -5.745,3.215c-1.322,1.369 -2.006,2.942 -2.052,4.719c0,1.72 0.702,3.13 2.105,4.229c1.404,1.099 3.271,2.019 5.602,2.76c2.331,0.74 4.892,1.462 7.683,2.167c2.792,0.703 5.583,1.505 8.374,2.406c2.792,0.9 5.365,2.051 7.718,3.451c2.354,1.399 4.243,3.186 5.669,5.36c1.426,2.173 2.139,4.878 2.139,8.114c0,5.063 -1.508,9.472 -4.524,13.227c-3.016,3.754 -7.26,6.665 -12.733,8.732c-5.473,2.067 -11.888,3.1 -19.244,3.1Z" style="fill-rule:nonzero;"/></g><g><path d="M67.867,1004.124l15.839,-73.867l32.248,0c9.847,0 17.465,2.012 22.856,6.035c5.392,4.022 8.088,9.634 8.088,16.834c0,6.191 -1.561,11.555 -4.683,16.093c-3.121,4.536 -7.566,8.043 -13.334,10.52c-5.769,2.475 -12.59,3.713 -20.464,3.713l-25.773,0l9.68,-7.519l-6.018,28.192l-18.44,0Zm50.95,0l-16.225,-26.845l19.234,0l16.313,26.845l-19.322,0Zm-26.966,-26.192l-6.318,-8.107l23.628,0c6.062,0 10.772,-1.286 14.128,-3.858c3.356,-2.573 5.035,-6.299 5.035,-11.177c0,-3.608 -1.285,-6.278 -3.854,-8.012c-2.569,-1.733 -6.196,-2.6 -10.881,-2.6l-22.343,0l9.68,-8.297l-9.076,42.052Z" style="fill-rule:nonzero;"/><path d="M177.362,959.985l38.167,0l-2.823,13.291l-38.167,0l2.823,-13.291Zm-5.21,30.386l43.193,0l-2.981,13.753l-61.341,0l15.839,-73.867l59.801,0l-2.981,13.753l-41.609,0l-9.923,46.362Z" style="fill-rule:nonzero;"/><path d="M226.94,1004.124l15.839,-73.867l31.978,0c9.907,0 17.563,2.019 22.969,6.056c5.406,4.036 8.109,9.669 8.109,16.897c0,6.234 -1.561,11.643 -4.683,16.229c-3.122,4.586 -7.567,8.117 -13.336,10.592c-5.769,2.475 -12.59,3.713 -20.462,3.713l-25.774,0l9.818,-7.812l-6.087,28.192l-18.371,0Zm23.984,-26.192l-6.454,-8.107l23.628,0c6.062,0 10.772,-1.286 14.128,-3.858c3.356,-2.573 5.035,-6.299 5.035,-11.177c0,-3.608 -1.285,-6.278 -3.854,-8.012c-2.569,-1.733 -6.197,-2.6 -10.883,-2.6l-22.341,0l9.749,-8.297l-9.009,42.052Z" style="fill-rule:nonzero;"/><path d="M344.656,1005.367c-7.722,0 -14.142,-1.396 -19.262,-4.188c-5.118,-2.793 -8.726,-6.715 -10.822,-11.764c-2.095,-5.05 -2.411,-10.993 -0.948,-17.83l8.848,-41.328l18.373,0l-8.804,41.097c-1.405,6.563 -0.793,11.459 1.837,14.686c2.629,3.226 6.906,4.839 12.829,4.839c5.531,0 9.966,-1.536 13.306,-4.607c3.341,-3.072 5.751,-8.067 7.23,-14.983l8.804,-41.033l18.056,0l-9.007,42.127c-2.338,10.917 -6.889,19.144 -13.653,24.68c-6.762,5.536 -15.692,8.303 -26.787,8.303Z" style="fill-rule:nonzero;"/><path d="M421.743,959.985l38.167,0l-2.823,13.291l-38.167,0l2.823,-13.291Zm-5.21,30.386l43.193,0l-2.981,13.753l-61.341,0l15.839,-73.867l59.801,0l-2.981,13.753l-41.609,0l-9.923,46.362Z" style="fill-rule:nonzero;"/><path d="M498.949,1005.367c-4.312,0 -8.481,-0.359 -12.507,-1.078c-4.026,-0.718 -7.691,-1.71 -10.994,-2.976c-3.302,-1.267 -6.077,-2.668 -8.323,-4.203l7.497,-13.139c2.441,1.632 5.082,3.022 7.925,4.17c2.844,1.148 5.801,2.021 8.871,2.62c3.07,0.598 6.167,0.897 9.292,0.897c3.385,0 6.305,-0.346 8.761,-1.037c2.456,-0.691 4.342,-1.679 5.657,-2.963c1.316,-1.284 1.975,-2.815 1.975,-4.592c0,-1.72 -0.713,-3.112 -2.139,-4.176c-1.426,-1.065 -3.298,-1.964 -5.615,-2.696c-2.316,-0.733 -4.87,-1.441 -7.662,-2.124c-2.791,-0.683 -5.589,-1.499 -8.395,-2.449c-2.806,-0.95 -5.368,-2.152 -7.685,-3.608c-2.316,-1.456 -4.187,-3.31 -5.613,-5.561c-1.426,-2.251 -2.139,-5.059 -2.139,-8.422c0,-5.076 1.5,-9.488 4.501,-13.235c3.002,-3.747 7.216,-6.648 12.643,-8.701c5.427,-2.053 11.789,-3.08 19.085,-3.08c5.336,0 10.379,0.535 15.129,1.604c4.751,1.07 8.837,2.624 12.26,4.665l-6.886,13.12c-3.031,-1.872 -6.402,-3.286 -10.114,-4.242c-3.71,-0.957 -7.534,-1.436 -11.473,-1.436c-3.52,0 -6.535,0.388 -9.044,1.164c-2.508,0.775 -4.423,1.847 -5.745,3.215c-1.322,1.369 -2.006,2.942 -2.052,4.719c0,1.72 0.702,3.13 2.105,4.229c1.404,1.099 3.271,2.019 5.602,2.76c2.331,0.74 4.892,1.462 7.683,2.167c2.792,0.703 5.583,1.505 8.374,2.406c2.792,0.9 5.365,2.051 7.718,3.451c2.354,1.399 4.243,3.186 5.669,5.36c1.426,2.173 2.139,4.878 2.139,8.114c0,5.063 -1.508,9.472 -4.524,13.227c-3.016,3.754 -7.26,6.665 -12.733,8.732c-5.473,2.067 -11.888,3.1 -19.244,3.1Z" style="fill-rule:nonzero;"/><path d="M558.749,1004.124l12.815,-59.905l-25.31,0l3.025,-13.962l68.992,0l-3.025,13.962l-25.311,0l-12.813,59.905l-18.373,0Z" style="fill-rule:nonzero;"/><path d="M652.254,1005.367c-8.039,0 -14.943,-1.354 -20.712,-4.061c-5.769,-2.708 -10.191,-6.468 -13.267,-11.28c-3.076,-4.811 -4.614,-10.368 -4.614,-16.67c0,-6.33 1.169,-12.186 3.506,-17.568c2.337,-5.382 5.673,-10.074 10.009,-14.078c4.337,-4.003 9.503,-7.12 15.498,-9.35c5.996,-2.231 12.638,-3.347 19.925,-3.347c8.039,0 14.943,1.354 20.712,4.063c5.769,2.707 10.191,6.467 13.267,11.278c3.077,4.811 4.616,10.368 4.616,16.67c0,6.33 -1.169,12.186 -3.507,17.568c-2.337,5.382 -5.674,10.074 -10.011,14.078c-4.336,4.003 -9.502,7.121 -15.498,9.352c-5.995,2.23 -12.636,3.345 -19.923,3.345Zm1.58,-14.488c4.457,0 8.461,-0.757 12.01,-2.272c3.551,-1.515 6.584,-3.614 9.101,-6.297c2.516,-2.683 4.431,-5.761 5.745,-9.233c1.315,-3.474 1.973,-7.147 1.973,-11.021c0,-3.691 -0.839,-6.928 -2.516,-9.71c-1.677,-2.782 -4.121,-4.951 -7.333,-6.508c-3.21,-1.558 -7.142,-2.336 -11.797,-2.336c-4.427,0 -8.423,0.757 -11.989,2.272c-3.565,1.515 -6.606,3.614 -9.122,6.297c-2.515,2.683 -4.43,5.762 -5.745,9.235c-1.315,3.472 -1.973,7.145 -1.973,11.019c0,3.663 0.839,6.892 2.516,9.688c1.677,2.796 4.121,4.973 7.331,6.531c3.211,1.556 7.144,2.335 11.798,2.335Z" style="fill-rule:nonzero;"/><path d="M734.278,1005.367c-4.312,0 -8.481,-0.359 -12.507,-1.078c-4.026,-0.718 -7.691,-1.71 -10.994,-2.976c-3.302,-1.267 -6.077,-2.668 -8.323,-4.203l7.497,-13.139c2.441,1.632 5.082,3.022 7.925,4.17c2.844,1.148 5.801,2.021 8.871,2.62c3.07,0.598 6.167,0.897 9.292,0.897c3.385,0 6.305,-0.346 8.761,-1.037c2.456,-0.691 4.342,-1.679 5.657,-2.963c1.316,-1.284 1.975,-2.815 1.975,-4.592c0,-1.72 -0.713,-3.112 -2.139,-4.176c-1.426,-1.065 -3.298,-1.964 -5.615,-2.696c-2.316,-0.733 -4.87,-1.441 -7.662,-2.124c-2.791,-0.683 -5.589,-1.499 -8.395,-2.449c-2.806,-0.95 -5.368,-2.152 -7.685,-3.608c-2.316,-1.456 -4.187,-3.31 -5.613,-5.561c-1.426,-2.251 -2.139,-5.059 -2.139,-8.422c0,-5.076 1.5,-9.488 4.501,-13.235c3.002,-3.747 7.216,-6.648 12.643,-8.701c5.427,-2.053 11.789,-3.08 19.085,-3.08c5.336,0 10.379,0.535 15.129,1.604c4.751,1.07 8.837,2.624 12.26,4.665l-6.886,13.12c-3.031,-1.872 -6.402,-3.286 -10.114,-4.242c-3.71,-0.957 -7.534,-1.436 -11.473,-1.436c-3.52,0 -6.535,0.388 -9.044,1.164c-2.508,0.775 -4.423,1.847 -5.745,3.215c-1.322,1.369 -2.006,2.942 -2.052,4.719c0,1.72 0.702,3.13 2.105,4.229c1.404,1.099 3.271,2.019 5.602,2.76c2.331,0.74 4.892,1.462 7.683,2.167c2.792,0.703 5.583,1.505 8.374,2.406c2.792,0.9 5.365,2.051 7.718,3.451c2.354,1.399 4.243,3.186 5.669,5.36c1.426,2.173 2.139,4.878 2.139,8.114c0,5.063 -1.508,9.472 -4.524,13.227c-3.016,3.754 -7.26,6.665 -12.733,8.732c-5.473,2.067 -11.888,3.1 -19.244,3.1Z" style="fill-rule:nonzero;"/></g><path d="M1768.196,444.943l16.891,-127.888l150.57,-140.436l130.784,0l-173.252,157.327l-77.216,66.598l-47.777,44.399Zm-116.306,69.494l67.564,-337.818l111.962,0l-67.564,337.818l-111.962,0Zm228.268,0l-81.559,-131.266l84.454,-76.25l124.027,207.517l-126.923,0Z" style="fill-rule:nonzero;"/><path d="M1482.982,514.437l67.564,-337.818l113.893,0l-67.564,337.818l-113.893,0Z" style="fill-rule:nonzero;"/><path d="M2165.017,311.171l178.935,0l-14.239,71.559l-178.935,0l14.239,-71.559Zm-6.716,129.204l187.545,0l-18.303,74.062l-280.871,0l67.564,-337.818l274.598,0l-14.451,71.451l-180.788,0l-35.293,192.305Z" style="fill-rule:nonzero;"/><path d="M236.006,251.141l16.48,-75.405c0,0 190.117,1.036 254.452,0.893c5.53,-0.012 62.766,-5.451 69.608,44.115c1.43,10.357 -4.017,34.257 -4.797,38.274c-3.492,17.992 -9.549,39.012 -14.101,53.169c-3.511,10.92 -8.148,24.274 -13.535,34.03c-3.91,7.082 -12.446,17.727 -20.989,24.788c-8.418,6.957 -19.736,15.221 -31.239,17.255c-13.036,2.304 -29.7,2.284 -29.7,2.284l59.788,123.263l-112.764,0.629l-52.239,-120.747l-45.563,0l-26.437,120.118l-106.368,0l51.242,-234.469l95.126,0l-6.212,35.139c0,0 109.462,3.26 135.128,0.744c7.323,-0.718 9.443,-3.405 16.104,-15.098c4.09,-7.178 8.608,-21.061 9.562,-28.954c0.396,-3.271 1.137,-7.92 -0.142,-10.957c-1.342,-3.187 -4.126,-7.955 -7.91,-8.167c-9.471,-0.53 -33.058,-0.789 -58.321,-0.906c-39.557,-0.184 -83.22,-0.023 -83.22,-0.023l-0.004,0.023l-93.949,0Z"/><path d="M2444.002,251.141l16.48,-75.405c0,0 190.117,1.036 254.452,0.893c5.53,-0.012 62.766,-5.451 69.608,44.115c1.43,10.357 -4.017,34.257 -4.797,38.274c-3.492,17.992 -9.549,39.012 -14.101,53.169c-3.511,10.92 -8.148,24.274 -13.535,34.03c-3.91,7.082 -12.446,17.727 -20.989,24.788c-8.418,6.957 -19.736,15.221 -31.239,17.255c-13.036,2.304 -29.7,2.284 -29.7,2.284l59.788,123.263l-112.764,0.629l-52.239,-120.747l-45.563,0l-26.437,120.118l-106.368,0l51.242,-234.469l95.126,0l-6.212,35.139c0,0 109.462,3.26 135.128,0.744c7.323,-0.718 9.443,-3.405 16.104,-15.098c4.09,-7.178 8.608,-21.061 9.562,-28.954c0.396,-3.271 1.137,-7.92 -0.142,-10.957c-1.342,-3.187 -4.126,-7.955 -7.91,-8.167c-24.301,-1.361 -141.541,-0.929 -141.541,-0.929l-0.004,0.023l-93.949,0Z"/><path d="M654.561,251.141l16.48,-75.405c0,0 190.117,1.036 254.452,0.893c5.53,-0.012 62.766,-5.451 69.608,44.115c1.43,10.357 -4.017,34.257 -4.797,38.274c-3.492,17.992 -9.549,39.012 -14.101,53.169c-3.511,10.92 -8.148,24.274 -13.535,34.03c-3.91,7.082 -12.446,17.727 -20.989,24.788c-8.418,6.957 -19.736,15.221 -31.239,17.255c-13.036,2.304 -29.7,2.284 -29.7,2.284l59.788,123.263l-112.764,0.629l-52.239,-120.747l-45.563,0l-26.437,120.118l-106.368,0l51.242,-234.469l95.126,0l-6.212,35.139c0,0 109.462,3.26 135.128,0.744c7.323,-0.718 9.443,-3.405 16.104,-15.098c4.09,-7.178 8.608,-21.061 9.562,-28.954c0.396,-3.271 1.137,-7.92 -0.142,-10.957c-1.342,-3.187 -4.126,-7.955 -7.91,-8.167c-24.301,-1.361 -141.541,-0.929 -141.541,-0.929l-0.004,0.023l-93.949,0Z"/><path d="M1377.667,514.437l-292.707,-0l79.615,-337.818c0,0 197.825,0.027 270.507,0c15.115,-0.006 63.794,6.87 48.994,80.818c-17.025,85.062 -82.677,86.475 -82.677,86.475c0,0 71.353,3.998 50.525,86.741c-19.378,76.984 -47.478,83.784 -74.256,83.784Zm-133.222,-261.532l-10.818,51.806c0,0 87.36,-0.212 113.887,0c10.919,0.087 20.961,-10.396 22.436,-18.538c0.57,-3.145 1.66,-10.891 0,-15.889c-1.124,-3.384 -5.119,-17.21 -20.619,-17.379c-26.809,-0.293 -104.886,-0 -104.886,-0Zm-28.87,130.693l-10.818,51.806c0,0 87.36,-0.212 113.887,0c10.919,0.087 20.961,-10.396 22.436,-18.538c0.57,-3.145 1.66,-10.891 0,-15.889c-1.124,-3.384 -5.119,-17.21 -20.619,-17.379c-26.809,-0.293 -104.886,-0 -104.886,-0Z"/></svg>